<svg width="245" height="77" viewBox="0 0 245 77" fill="none" xmlns="http://www.w3.org/2000/svg">
<path d="M21.5278 51.2308C18.3258 45.3385 15.9384 39.039 14.4308 32.5046C14.1669 31.3736 13.9407 30.2359 13.6967 29.1027C13.3529 28.7301 13.4749 28.2333 13.3419 27.8053C13.2798 27.1023 13.0979 26.4104 13.0868 25.6985C13.0801 25.6401 13.0869 25.5809 13.1068 25.5255C13.0668 25.5743 13.0912 25.632 13.0846 25.6896C13.058 26.0223 13.1689 26.355 13.0846 26.6832C13.0136 27.1533 12.8761 27.5192 12.3549 27.7454C11.6053 28.0692 11.541 28.9053 12.2307 29.3511C12.7009 29.6549 12.7808 30.0008 12.7785 30.4976C12.7785 31.8881 12.7231 33.2786 12.8029 34.6691C12.8983 37.2061 12.9582 39.7454 13.2154 42.2713C13.9739 49.634 15.2403 56.877 18.4362 63.6498C19.4501 65.842 20.7226 67.905 22.2264 69.7951C22.5169 70.1477 22.5413 70.3007 22.0423 70.4604C16.1636 72.2774 10.2894 74.107 4.41962 75.9491C4.04924 76.0645 3.90952 75.9957 3.79641 75.6231C3.19095 73.6272 2.55666 71.6313 1.93789 69.6354C1.88022 69.4402 1.77599 69.2584 2.04878 69.092C3.97162 67.9189 4.84987 66.0205 5.42872 63.9803C6.31584 60.8888 6.37572 57.7131 6.16725 54.5351C5.66159 46.8331 3.72766 39.4149 1.54534 32.0433C0.982012 30.1339 0.926567 28.1202 1.06185 26.131C1.26521 22.6675 2.43961 19.3312 4.45066 16.504C7.05881 12.8426 10.4764 10.3588 14.8744 9.1856C16.4268 8.77311 17.9394 8.23643 19.5473 8.07676C24.7503 7.56891 29.3788 8.97936 33.4396 12.2682C35.4357 13.8871 36.9349 15.903 38.2212 18.1295C39.4588 20.2718 39.9755 22.6536 40.7872 24.9356C42.9008 30.868 45.2362 36.6894 48.5717 42.0628C50.4059 45.0124 52.5061 47.7379 55.4292 49.7139C56.7333 50.601 58.1527 51.1709 59.7672 51.0711C60.0578 51.0534 60.1731 51.1487 60.2507 51.4237C60.8747 53.464 61.5097 55.5013 62.1558 57.5357C62.2955 57.9792 62.0161 57.9792 61.7544 58.059L50.743 61.4876C45.1519 63.2329 39.5586 64.9649 33.9763 66.7457C33.4019 66.9276 33.0892 66.8278 32.6789 66.4109C30.2267 63.8634 27.9664 61.1378 25.9168 58.2564C25.8728 58.1855 25.8343 58.1114 25.8015 58.0346C25.7947 58.0029 25.7835 57.9723 25.7682 57.9437C25.4023 57.203 22.355 52.7432 21.5278 51.2308Z" fill="white" stroke="#E0DEDE" stroke-width="0.221893" stroke-miterlimit="10"/>
<path d="M55.8617 63.7362C56.4871 67.6593 53.5419 70.7619 50.0178 70.7042C47.7401 70.6665 45.9947 69.5821 44.8569 67.575C44.7172 67.3267 44.6351 67.1537 45.0321 67.0295C48.5806 65.9428 52.1291 64.8362 55.6776 63.7384C55.7385 63.728 55.8006 63.7272 55.8617 63.7362Z" fill="white" stroke="#E0DEDE" stroke-width="0.221893" stroke-miterlimit="10"/>
<path d="M13.6213 1C16.2494 1.08205 18.1922 2.81629 18.434 4.99184C18.4872 5.4753 18.434 5.71259 17.8396 5.69928C15.1873 5.6176 12.6052 6.55847 10.6273 8.32725C10.3545 8.5601 10.217 8.5845 10.0107 8.25406C9.06594 6.73273 8.90182 5.1493 9.73128 3.55921C10.6117 1.88708 12.0467 1.04879 13.6213 1Z" fill="white" stroke="#E0DEDE" stroke-width="0.221893" stroke-miterlimit="10"/>
<path d="M13.4949 27.8031L12.9559 27.5525L12.9293 26.6654L12.9848 25.5277C12.993 25.5138 13.0039 25.5017 13.0168 25.492C13.0298 25.4823 13.0445 25.4753 13.0602 25.4714C13.0759 25.4675 13.0922 25.4667 13.1082 25.4692C13.1242 25.4716 13.1395 25.4772 13.1533 25.4856C13.1711 25.4961 13.1863 25.5105 13.1977 25.5277C13.2982 26.2862 13.3973 27.0446 13.4949 27.8031Z" fill="white" stroke="#E0DEDE" stroke-width="0.221893" stroke-miterlimit="10"/>
<path d="M13.1977 25.5255H12.9759C12.9582 25.4124 12.9161 25.2239 13.0225 25.2172C13.2022 25.2017 13.2066 25.3902 13.1977 25.5255Z" fill="white" stroke="#E0DEDE" stroke-width="0.221893" stroke-miterlimit="10"/>
<path d="M25.9168 56.074C25.9223 56.1233 25.9181 56.1731 25.9044 56.2207C25.8907 56.2683 25.8677 56.3127 25.8369 56.3514C25.806 56.3901 25.7677 56.4224 25.7244 56.4463C25.681 56.4703 25.6333 56.4854 25.5841 56.491H25.5065C25.1516 56.491 25.0762 56.1783 25.0496 55.9121C25.0367 55.8486 25.0388 55.7829 25.0556 55.7202C25.0724 55.6575 25.1035 55.5996 25.1465 55.551C25.1895 55.5025 25.2432 55.4645 25.3034 55.4402C25.3635 55.4159 25.4285 55.4059 25.4932 55.411C25.8857 55.4442 25.7926 55.8567 25.9168 56.074Z" fill="white" stroke="#E0DEDE" stroke-width="0.221893" stroke-miterlimit="10"/>
<path d="M40.8671 50.0908C40.7984 50.2837 40.6121 50.2837 40.4546 50.3281C40.357 50.3547 40.2883 50.3037 40.3016 50.2017C40.3062 50.1595 40.3193 50.1187 40.34 50.0816C40.3607 50.0446 40.3886 50.012 40.4221 49.986C40.4556 49.9599 40.494 49.9409 40.535 49.9299C40.576 49.919 40.6188 49.9164 40.6609 49.9223C40.774 49.9223 40.8671 49.9467 40.8671 50.0908Z" fill="white" stroke="#E0DEDE" stroke-width="0.221893" stroke-miterlimit="10"/>
<path d="M35.9302 20.6731C35.9181 20.7511 35.8767 20.8216 35.8145 20.8702C35.7523 20.9188 35.6739 20.9419 35.5953 20.9348C35.4578 20.9348 35.338 20.8882 35.3558 20.7285C35.3569 20.6552 35.3869 20.5852 35.4392 20.5338C35.4914 20.4823 35.5618 20.4535 35.6352 20.4535C35.6558 20.4514 35.6767 20.4514 35.6973 20.4535C35.7536 20.4627 35.8058 20.4886 35.8473 20.5277C35.8888 20.5668 35.9177 20.6174 35.9302 20.6731Z" fill="white" stroke="#E0DEDE" stroke-width="0.221893" stroke-miterlimit="10"/>
<path d="M34.5507 53.2642C34.5263 53.5082 34.3179 53.486 34.1715 53.517C34.1327 53.5289 34.0907 53.5252 34.0546 53.5065C34.0186 53.4878 33.9913 53.4558 33.9785 53.4172C33.973 53.3939 33.973 53.3696 33.9785 53.3463C33.9918 53.14 34.1715 53.0846 34.3267 53.0469C34.482 53.0092 34.5286 53.14 34.5507 53.2642Z" fill="white" stroke="#E0DEDE" stroke-width="0.221893" stroke-miterlimit="10"/>
<path d="M30.6474 21.6444C30.4256 21.9083 30.2039 22.0325 29.9643 22.0214C29.8601 22.0214 29.8579 21.8528 29.92 21.7619C30.0996 21.5002 30.328 21.5778 30.6474 21.6444Z" fill="white" stroke="#E0DEDE" stroke-width="0.221893" stroke-miterlimit="10"/>
<path d="M24.2557 24.9401C24.2247 25.1618 24.0672 25.133 23.9253 25.133C23.7834 25.133 23.6525 25.133 23.7035 24.9401C23.7305 24.8732 23.7773 24.8162 23.8375 24.7766C23.8977 24.737 23.9686 24.7166 24.0406 24.7183C24.2025 24.6917 24.2424 24.8136 24.2557 24.9401Z" fill="white" stroke="#E0DEDE" stroke-width="0.221893" stroke-miterlimit="10"/>
<path d="M17.4137 26.692C17.4137 26.3416 17.5113 26.1309 17.8062 26.1731C18.1611 26.2241 18.2254 26.5656 18.2698 26.8384C18.2779 26.8893 18.2758 26.9413 18.2635 26.9914C18.2512 27.0414 18.229 27.0885 18.1982 27.1299C18.1674 27.1712 18.1286 27.206 18.0841 27.2321C18.0397 27.2582 17.9904 27.2751 17.9393 27.2819C17.9106 27.2852 17.8816 27.2852 17.8528 27.2819C17.4802 27.2398 17.4869 26.8805 17.4137 26.692Z" fill="white" stroke="#E0DEDE" stroke-width="0.221893" stroke-miterlimit="10"/>
<path d="M27.7021 55.0517C27.7021 54.7611 27.7243 54.4795 28.0437 54.5194C28.4052 54.566 28.536 54.8964 28.5782 55.2113C28.593 55.2743 28.593 55.3398 28.5782 55.4028C28.5634 55.4658 28.5343 55.5245 28.493 55.5743C28.4518 55.6241 28.3996 55.6637 28.3405 55.69C28.2814 55.7163 28.217 55.7286 28.1524 55.7258C27.7554 55.6904 27.7443 55.3156 27.7021 55.0517Z" fill="white" stroke="#E0DEDE" stroke-width="0.221893" stroke-miterlimit="10"/>
<path d="M45.988 48.8066C46.1344 48.831 46.2342 48.9087 46.2098 49.0595C46.1854 49.2103 46.0302 49.2812 45.8727 49.2701C45.7152 49.259 45.6176 49.1992 45.6509 49.0484C45.6842 48.8976 45.8483 48.8421 45.988 48.8066Z" fill="white" stroke="#E0DEDE" stroke-width="0.221893" stroke-miterlimit="10"/>
<path d="M12.5723 30.1072C12.4685 29.7931 12.4153 29.4645 12.4148 29.1337C12.3569 28.6629 12.2597 28.1978 12.1243 27.7432" fill="white"/>
<path d="M12.6987 30.0341C12.5501 29.6859 12.5834 29.2801 12.5346 28.9119C12.4696 28.5055 12.38 28.1033 12.2662 27.7077C12.2522 27.6753 12.2269 27.649 12.195 27.6337C12.1631 27.6185 12.1268 27.6153 12.0927 27.6247C12.0586 27.6342 12.0291 27.6557 12.0096 27.6852C11.9902 27.7147 11.9821 27.7503 11.9868 27.7854C12.1091 28.2008 12.2002 28.6249 12.2596 29.0539C12.2663 29.4403 12.3298 29.8236 12.4481 30.1916C12.4675 30.2233 12.4982 30.2464 12.5341 30.2563C12.5699 30.2662 12.6081 30.2621 12.641 30.2448C12.6737 30.2245 12.6972 30.1925 12.7068 30.1553C12.7163 30.118 12.711 30.0786 12.6921 30.0452L12.6987 30.0341Z" fill="white"/>
<path d="M12.0179 26.9248C12.0955 27.7564 11.7495 28.6125 11.9646 29.4219C12.0047 29.3552 12.0233 29.2778 12.0179 29.2002L12.06 27.3794C12.1508 27.5983 12.191 27.8348 12.1775 28.0714C12.1716 28.7124 12.1324 29.3527 12.06 29.9897L12.0755 29.9409" fill="white"/>
<path d="M11.8715 26.9247C11.9447 27.7741 11.6098 28.619 11.8249 29.4618C11.8371 29.499 11.8635 29.5299 11.8984 29.5478C11.9333 29.5657 11.9738 29.569 12.0112 29.5571C12.0447 29.5473 12.0733 29.5251 12.091 29.495C12.1561 29.3568 12.1829 29.2036 12.1687 29.0515V28.5015L12.1953 27.3749L11.9247 27.4481C11.9968 27.633 12.03 27.8308 12.0223 28.0291C12.0223 28.2509 12.0223 28.4572 12.009 28.6701C11.9868 29.1136 11.9469 29.5571 11.9047 29.9874C11.887 30.1537 12.1443 30.1825 12.1953 30.0251L12.2086 29.9785C12.2137 29.9601 12.2151 29.941 12.2128 29.9221C12.2105 29.9032 12.2045 29.8849 12.1951 29.8683C12.1857 29.8518 12.1732 29.8372 12.1582 29.8255C12.1432 29.8137 12.126 29.8051 12.1077 29.8C12.0893 29.7949 12.0701 29.7934 12.0512 29.7958C12.0323 29.7981 12.0141 29.8041 11.9975 29.8134C11.9809 29.8228 11.9664 29.8354 11.9546 29.8504C11.9429 29.8654 11.9342 29.8825 11.9291 29.9009L11.9136 29.9497L12.2041 29.9874C12.2485 29.5172 12.2929 29.0471 12.3128 28.5747C12.3283 28.1533 12.3638 27.6987 12.1842 27.3062C12.1221 27.1687 11.918 27.2463 11.9136 27.3794L11.8914 28.4106V28.9118C11.9132 29.0609 11.8988 29.213 11.8493 29.3553L12.1154 29.3908C11.907 28.5791 12.2418 27.7475 12.1709 26.9292C12.1553 26.7451 11.8648 26.7429 11.8826 26.9292L11.8715 26.9247Z" fill="white"/>
<path d="M11.6895 29.1203C11.7233 28.6243 11.6799 28.126 11.5609 27.6433L11.6895 29.1203Z" fill="white"/>
<path d="M11.8338 29.1203C11.8672 28.6108 11.8223 28.0993 11.7007 27.6034C11.6563 27.4238 11.3769 27.4992 11.4213 27.681C11.5356 28.1517 11.5775 28.637 11.5455 29.1203C11.5455 29.1585 11.5606 29.1952 11.5877 29.2222C11.6147 29.2492 11.6514 29.2644 11.6896 29.2644C11.7278 29.2644 11.7645 29.2492 11.7915 29.2222C11.8186 29.1952 11.8338 29.1585 11.8338 29.1203Z" fill="white"/>
<path d="M11.8581 27.8696V28.4174L11.847 30.1627" fill="white"/>
<path d="M11.7117 27.8694V30.1581C11.7117 30.1963 11.7269 30.233 11.7539 30.26C11.7809 30.2871 11.8176 30.3023 11.8558 30.3023C11.8941 30.3023 11.9307 30.2871 11.9578 30.26C11.9848 30.233 12 30.1963 12 30.1581L12.0133 27.8694C12.0136 27.8503 12.0101 27.8313 12.003 27.8136C11.9959 27.7959 11.9853 27.7797 11.9719 27.7661C11.9584 27.7525 11.9425 27.7416 11.9248 27.7343C11.9072 27.7269 11.8883 27.7231 11.8691 27.7231C11.849 27.7215 11.8288 27.7242 11.8097 27.7309C11.7906 27.7375 11.7732 27.7481 11.7584 27.7618C11.7436 27.7756 11.7318 27.7922 11.7238 27.8107C11.7157 27.8293 11.7116 27.8493 11.7117 27.8694Z" fill="white"/>
<path d="M12.1354 29.6547C12.1993 29.1922 12.2045 28.7235 12.1509 28.2598L12.1354 29.6547Z" fill="white"/>
<path d="M12.275 29.6925C12.3416 29.2177 12.3483 28.7364 12.295 28.2599C12.2945 28.2216 12.2792 28.1851 12.2523 28.1578C12.2254 28.1305 12.1891 28.1147 12.1508 28.1135C12.1124 28.1141 12.0757 28.1298 12.0488 28.1572C12.0218 28.1846 12.0067 28.2215 12.0067 28.2599C12.0584 28.7103 12.0547 29.1654 11.9956 29.6149C11.9874 29.6516 11.9927 29.69 12.0106 29.723C12.0286 29.7561 12.0579 29.7815 12.0932 29.7945C12.1299 29.8043 12.169 29.7997 12.2025 29.7815C12.2359 29.7634 12.2611 29.7331 12.2728 29.697L12.275 29.6925Z" fill="white"/>
<path d="M12.5079 30.3711L12.7474 28.1357C12.8386 27.1236 12.9822 26.1169 13.1777 25.1196C13.0622 25.4721 12.9652 25.8304 12.8871 26.193C12.774 26.7873 12.7607 27.4083 12.5345 27.9671C12.3791 28.2593 12.2528 28.5661 12.1575 28.883" fill="white"/>
<path d="M12.6543 30.3711C12.7474 29.4929 12.8413 28.6154 12.9359 27.7387C13.0157 26.8731 13.1401 26.0123 13.3085 25.1595C13.3157 25.1216 13.3076 25.0824 13.286 25.0504C13.2644 25.0184 13.2311 24.9963 13.1932 24.9888C13.1593 24.9829 13.1244 24.9889 13.0945 25.0059C13.0645 25.0229 13.0414 25.0498 13.0291 25.0819C12.9337 25.4146 12.8251 25.7472 12.7563 26.0865C12.6875 26.4258 12.6587 26.7319 12.6077 27.0534C12.5677 27.3675 12.488 27.6753 12.3704 27.9693C12.2258 28.2451 12.1078 28.5339 12.0178 28.832C11.9801 29.0139 12.2595 29.0915 12.2994 28.9096C12.3857 28.6151 12.5008 28.3299 12.6432 28.058C12.7612 27.7585 12.8424 27.4457 12.8849 27.1266C12.9337 26.8117 12.9648 26.4924 13.0291 26.1797C13.1045 25.8328 13.1978 25.4901 13.3085 25.1529L13.0291 25.0752C12.8472 25.9357 12.7386 26.8139 12.6432 27.6833L12.3527 30.36C12.3349 30.5463 12.6232 30.5441 12.6432 30.36L12.6543 30.3711Z" fill="white"/>
<path d="M12.213 27.8029C12.2464 27.8289 12.2728 27.8628 12.2898 27.9015C12.3069 27.9402 12.314 27.9826 12.3106 28.0247C12.3174 28.1609 12.3062 28.2973 12.2773 28.4306C12.266 28.4763 12.2593 28.5231 12.2574 28.5703C12.2572 28.5941 12.2627 28.6176 12.2735 28.6388C12.2843 28.6601 12.3001 28.6784 12.3195 28.6922C12.4836 28.3537 12.5236 27.9684 12.4326 27.6034C12.4482 27.9969 12.3919 28.3899 12.2662 28.7632C12.2352 28.7632 12.2263 28.7233 12.2285 28.6922C12.2285 28.2953 12.4304 27.9294 12.5013 27.5413" fill="white"/>
<path d="M12.1398 27.9271C12.1242 27.9271 12.1531 27.9426 12.1398 27.9271C12.1265 27.9116 12.1398 27.9271 12.1398 27.9515C12.1479 27.9788 12.1517 28.0073 12.1508 28.0358C12.1549 28.121 12.1512 28.2063 12.1398 28.2908C12.118 28.3789 12.1039 28.4687 12.0976 28.5592C12.0986 28.6078 12.1112 28.6555 12.1344 28.6983C12.1575 28.7411 12.1905 28.7778 12.2307 28.8053C12.2632 28.8233 12.3015 28.8281 12.3374 28.8186C12.3734 28.8091 12.4043 28.7861 12.4236 28.7543C12.6054 28.3817 12.6509 27.9572 12.5523 27.5545C12.5146 27.3971 12.2529 27.4281 12.2684 27.5922C12.2824 27.9737 12.2276 28.3546 12.1065 28.7166L12.2861 28.6146H12.2994L12.3505 28.6678C12.3371 28.6479 12.3505 28.6678 12.3505 28.6922V28.5924C12.3505 28.5481 12.3505 28.5059 12.3704 28.4616C12.39 28.3597 12.4152 28.2591 12.4458 28.16C12.5141 27.9662 12.5704 27.7685 12.6144 27.5678C12.6195 27.5495 12.6209 27.5303 12.6186 27.5114C12.6163 27.4925 12.6103 27.4743 12.6009 27.4577C12.5915 27.4411 12.579 27.4265 12.564 27.4148C12.549 27.4031 12.5318 27.3944 12.5135 27.3893C12.4951 27.3842 12.4759 27.3828 12.457 27.3851C12.4381 27.3874 12.4199 27.3934 12.4033 27.4028C12.3867 27.4122 12.3721 27.4247 12.3604 27.4397C12.3487 27.4547 12.34 27.4719 12.3349 27.4902C12.2884 27.732 12.1996 27.9626 12.1353 28.1977C12.1015 28.3167 12.0777 28.4384 12.0644 28.5614C12.051 28.6833 12.0488 28.8563 12.2019 28.8896C12.2202 28.8946 12.2394 28.896 12.2582 28.8936C12.2771 28.8911 12.2953 28.885 12.3118 28.8755C12.3283 28.866 12.3428 28.8534 12.3543 28.8383C12.3659 28.8232 12.3744 28.806 12.3793 28.7876C12.5076 28.4011 12.5661 27.9948 12.5523 27.5878L12.2617 27.6255C12.3431 27.9528 12.3094 28.2981 12.1664 28.6035L12.3638 28.5525C12.397 28.5769 12.3638 28.568 12.3638 28.5525C12.3615 28.54 12.3615 28.5273 12.3638 28.5148C12.3679 28.4787 12.3754 28.4431 12.3859 28.4084C12.4039 28.3132 12.4143 28.2168 12.417 28.1201C12.4289 28.0375 12.4192 27.9532 12.3889 27.8755C12.3586 27.7978 12.3087 27.7292 12.244 27.6765C12.0865 27.5812 11.9402 27.8318 12.0976 27.9271H12.1398Z" fill="white"/>
<path d="M12.6144 27.1732C12.6144 26.5079 13.0579 25.9092 13.1711 25.2483C13.242 25.383 13.2907 25.5283 13.3152 25.6785" fill="white"/>
<path d="M12.7607 27.1731C12.7607 26.5078 13.2043 25.9312 13.3085 25.2859L13.0446 25.3191C13.1094 25.4447 13.155 25.5792 13.1799 25.7183C13.2132 25.9002 13.4926 25.8225 13.4594 25.6407C13.4285 25.4774 13.3731 25.3196 13.2952 25.1728C13.2852 25.1563 13.2721 25.1419 13.2565 25.1305C13.2409 25.1191 13.2232 25.1109 13.2045 25.1064C13.1857 25.1019 13.1663 25.1011 13.1472 25.1041C13.1281 25.1071 13.1099 25.1139 13.0934 25.124C13.0626 25.143 13.0403 25.1732 13.0313 25.2082C12.9093 25.8736 12.4791 26.4723 12.4702 27.1731C12.4702 27.2113 12.4854 27.248 12.5124 27.275C12.5395 27.3021 12.5761 27.3173 12.6144 27.3173C12.6528 27.3173 12.6897 27.3022 12.7171 27.2752C12.7445 27.2482 12.7602 27.2116 12.7607 27.1731Z" fill="white"/>
<path d="M12.4924 30.4531C12.5628 30.2517 12.6126 30.0436 12.641 29.8322C12.8679 28.4791 13.164 27.1386 13.5281 25.8159" fill="white"/>
<path d="M12.6432 30.4931C12.7514 30.1312 12.8256 29.76 12.865 29.3843C12.936 28.9895 13.0099 28.5955 13.0868 28.2022C13.2539 27.4142 13.4431 26.6328 13.6546 25.8581C13.6648 25.8211 13.66 25.7815 13.6411 25.748C13.6221 25.7145 13.5907 25.6899 13.5536 25.6796C13.5166 25.6693 13.477 25.6742 13.4435 25.6931C13.41 25.712 13.3854 25.7435 13.3751 25.7805C13.1622 26.5537 12.9729 27.3351 12.8074 28.1246C12.7246 28.5105 12.6506 28.8964 12.5856 29.2822C12.5427 29.6679 12.464 30.0488 12.3505 30.4199C12.2839 30.5929 12.5723 30.6683 12.6299 30.4953L12.6432 30.4931Z" fill="white"/>
<path d="M13.7344 25.5586C13.5331 25.605 13.3552 25.7223 13.2332 25.889C12.8352 26.3448 12.5618 26.8955 12.4392 27.488" fill="white"/>
<path d="M13.6967 25.4189C13.4906 25.4632 13.3059 25.5767 13.1733 25.7405C13.0273 25.8988 12.8973 26.0711 12.7852 26.255C12.5559 26.6222 12.393 27.0268 12.3039 27.4503C12.264 27.63 12.5435 27.7098 12.5812 27.5257C12.6589 27.1471 12.7998 26.7842 12.9981 26.4524C13.0943 26.2958 13.2034 26.1474 13.3241 26.0088C13.4314 25.8588 13.5887 25.7519 13.7677 25.7072C13.8047 25.6964 13.836 25.6716 13.855 25.6381C13.8741 25.6045 13.8793 25.5649 13.8697 25.5276C13.8589 25.4912 13.8343 25.4604 13.8012 25.4418C13.7681 25.4232 13.729 25.4182 13.6923 25.4278L13.6967 25.4189Z" fill="white"/>
<path d="M12.9205 26.7894C13.0746 26.438 13.2042 26.0764 13.3086 25.7072C13.2133 26.4191 12.7764 27.0378 12.5657 27.7275C12.7463 27.2566 12.9032 26.777 13.0358 26.2905C13.1216 26.0191 13.1473 25.7323 13.1113 25.45C12.9378 25.7849 12.8387 26.1533 12.8207 26.53" fill="white"/>
<path d="M13.0446 26.8627C13.2038 26.5025 13.3386 26.1321 13.4483 25.7539L13.1688 25.6763C13.0602 26.3948 12.6388 27.0069 12.4259 27.6966C12.3704 27.8762 12.6476 27.945 12.7053 27.772C12.845 27.3861 12.9848 27.0002 13.1001 26.6055C13.2401 26.2259 13.2916 25.8193 13.2509 25.4168C13.2428 25.3895 13.2269 25.3652 13.2052 25.3468C13.1835 25.3284 13.1569 25.3167 13.1287 25.3131C13.1005 25.3096 13.0718 25.3144 13.0462 25.3269C13.0207 25.3394 12.9993 25.3591 12.9848 25.3835C12.803 25.7422 12.6987 26.1351 12.6787 26.5367C12.6787 26.723 12.9604 26.723 12.9692 26.5367C12.987 26.1863 13.0777 25.8434 13.2354 25.5299L12.9692 25.4944C12.9955 25.8721 12.9372 26.251 12.7985 26.6033C12.692 26.9559 12.5567 27.3284 12.4259 27.6877L12.7053 27.7631C12.9271 27.0779 13.3396 26.4636 13.4483 25.745C13.4749 25.5654 13.2265 25.4833 13.1688 25.6674C13.0669 26.0238 12.9424 26.3735 12.7962 26.7141C12.778 26.7473 12.7731 26.7863 12.7826 26.823C12.792 26.8597 12.8152 26.8913 12.8473 26.9115C12.8797 26.9301 12.9181 26.9352 12.9542 26.9257C12.9903 26.9161 13.0212 26.8927 13.0402 26.8605L13.0446 26.8627Z" fill="white"/>
<path d="M13.0667 25.266C12.8982 26.0267 12.5655 26.7386 12.3038 27.4837C12.2457 27.6312 12.2106 27.7868 12.1996 27.945C12.602 27.3905 12.8804 26.7559 13.0157 26.0843C13.0512 25.8293 13.0534 25.5676 13.0911 25.3126C13.0911 25.286 13.1045 25.2527 13.1333 25.2505C13.1597 25.277 13.1798 25.3091 13.1921 25.3444C13.2044 25.3797 13.2085 25.4174 13.2043 25.4545C13.2043 25.7761 13.2176 26.0954 13.2043 26.4192C13.1798 26.3224 13.1798 26.2211 13.2043 26.1243L13.273 25.7761C12.9477 26.2462 12.6254 26.7201 12.306 27.1976" fill="white"/>
<path d="M12.9294 25.2282C12.8161 25.6934 12.6678 26.1493 12.4858 26.5921C12.4016 26.8139 12.3128 27.0357 12.2286 27.2574C12.1333 27.4773 12.0735 27.7108 12.0511 27.9494C12.052 27.9808 12.063 28.0111 12.0825 28.0358C12.102 28.0605 12.1289 28.0783 12.1592 28.0865C12.1896 28.0947 12.2218 28.0929 12.2511 28.0814C12.2803 28.0699 12.3051 28.0492 12.3217 28.0225C12.5902 27.6306 12.8134 27.2095 12.9871 26.7673C13.0691 26.5473 13.1271 26.319 13.1601 26.0865C13.1756 25.969 13.1867 25.8492 13.1955 25.7294C13.1955 25.6607 13.1955 25.5919 13.2111 25.5254C13.2111 25.4944 13.2111 25.4633 13.2111 25.4278V25.3791C13.2111 25.3436 13.2111 25.3436 13.1889 25.3791L13.0137 25.3569C13.0602 25.399 13.0447 25.4988 13.0447 25.5542C13.0447 25.6518 13.0447 25.7472 13.0447 25.8448V26.4236L13.333 26.3859C13.3226 26.1934 13.349 26.0007 13.4107 25.8182C13.4204 25.7843 13.4173 25.748 13.402 25.7162C13.3868 25.6844 13.3604 25.6593 13.3279 25.6456C13.2954 25.632 13.259 25.6307 13.2256 25.6421C13.1922 25.6534 13.1642 25.6766 13.1467 25.7073C12.8244 26.1774 12.5021 26.6513 12.1798 27.1288C12.0778 27.284 12.3284 27.4282 12.4304 27.2752C12.752 26.7984 13.0758 26.3238 13.3974 25.8514L13.1312 25.7405C13.0554 25.9735 13.0297 26.2199 13.0558 26.4635C13.0612 26.4817 13.07 26.4987 13.082 26.5135C13.0939 26.5283 13.1087 26.5406 13.1253 26.5496C13.142 26.5587 13.1604 26.5644 13.1793 26.5663C13.1982 26.5683 13.2173 26.5665 13.2355 26.5611C13.265 26.5519 13.2909 26.5337 13.3096 26.509C13.3283 26.4844 13.3388 26.4545 13.3397 26.4236V25.7006C13.3397 25.5232 13.3663 25.2859 13.2199 25.1528C13.1963 25.1313 13.1665 25.1176 13.1347 25.1137C13.103 25.1097 13.0708 25.1156 13.0425 25.1307C12.9471 25.1839 12.9338 25.2859 12.9205 25.3857C12.905 25.521 12.8961 25.6585 12.885 25.796C12.8678 26.0513 12.8202 26.3037 12.7431 26.5478C12.5757 27.0202 12.3452 27.4678 12.0578 27.8784L12.3284 27.9516C12.3583 27.7098 12.4257 27.4741 12.528 27.253C12.6123 27.0312 12.6899 26.8316 12.7697 26.6232C12.9446 26.1907 13.0877 25.7459 13.1978 25.2926C13.2377 25.1107 12.9582 25.0331 12.9183 25.2149L12.9294 25.2282Z" fill="white"/>
<path d="M13.5503 25.623C13.4949 25.623 13.4528 25.6652 13.4195 25.7073C13.289 25.894 13.1831 26.0967 13.1046 26.3105C12.8758 26.8858 12.7143 27.4856 12.6233 28.098" fill="white"/>
<path d="M13.5504 25.479C13.3286 25.4945 13.2177 25.7318 13.1268 25.907C13.0177 26.1278 12.9243 26.3561 12.8473 26.59C12.6809 27.0671 12.5592 27.5586 12.4836 28.0581C12.457 28.2422 12.7364 28.3198 12.763 28.1358C12.8275 27.7105 12.9246 27.2909 13.0536 26.8805C13.1179 26.6809 13.1866 26.4836 13.2754 26.2884C13.3153 26.1908 13.3574 26.1021 13.404 26.0134C13.4239 25.9779 13.5193 25.7717 13.557 25.7673C13.7433 25.7562 13.7433 25.4657 13.557 25.479H13.5504Z" fill="white"/>
<path d="M13.3507 25.8538C13.129 26.1154 12.9249 26.3771 12.7297 26.6521C12.5182 26.8995 12.4012 27.2138 12.3993 27.5392" fill="white"/>
<path d="M13.2488 25.7493C13.027 26.0287 12.8052 26.3082 12.5834 26.6031C12.3678 26.8666 12.2496 27.1963 12.2485 27.5368C12.2618 27.7208 12.5524 27.7231 12.5391 27.5368C12.5494 27.2364 12.6648 26.9492 12.8651 26.7251C13.0514 26.459 13.2576 26.2062 13.4617 25.9533C13.4882 25.926 13.5031 25.8894 13.5031 25.8513C13.5031 25.8132 13.4882 25.7766 13.4617 25.7493C13.4484 25.7356 13.4326 25.7247 13.4151 25.7173C13.3975 25.7099 13.3787 25.7061 13.3597 25.7061C13.3406 25.7061 13.3218 25.7099 13.3043 25.7173C13.2867 25.7247 13.2709 25.7356 13.2576 25.7493H13.2488Z" fill="white"/>
<path d="M13.5969 26.8362C13.2493 27.4628 13.0073 28.1424 12.8806 28.8476C12.7061 29.6283 12.5634 30.4148 12.4525 31.2072" fill="white"/>
<path d="M13.4727 26.7606C13.1191 27.3978 12.8719 28.0885 12.7409 28.8053C12.5649 29.5859 12.4222 30.3732 12.3128 31.1672C12.3079 31.1852 12.3065 31.2041 12.3089 31.2226C12.3112 31.2412 12.3172 31.2592 12.3264 31.2754C12.3357 31.2917 12.3481 31.306 12.3629 31.3175C12.3777 31.329 12.3946 31.3374 12.4126 31.3424C12.4307 31.3473 12.4495 31.3487 12.4681 31.3463C12.4867 31.344 12.5046 31.338 12.5209 31.3287C12.5372 31.3195 12.5514 31.3071 12.5629 31.2923C12.5744 31.2775 12.5829 31.2606 12.5878 31.2426C12.6958 30.4664 12.8347 29.6939 13.0048 28.9251C13.13 28.2165 13.3705 27.5333 13.7167 26.9025C13.7361 26.8696 13.7416 26.8303 13.7321 26.7933C13.7225 26.7563 13.6986 26.7246 13.6657 26.7052C13.6324 26.6857 13.5928 26.6801 13.5554 26.6896C13.518 26.6992 13.4859 26.7231 13.4661 26.7562L13.4727 26.7606Z" fill="white"/>
<path d="M13.6367 27.2795L12.6764 29.5859C12.4125 30.218 12.1464 30.8722 12.1442 31.5575" fill="white"/>
<path d="M13.4971 27.2331L12.5834 29.4353C12.2995 30.1117 12.0045 30.808 12.0045 31.5598C12.0045 31.5981 12.0197 31.6347 12.0467 31.6617C12.0738 31.6888 12.1104 31.704 12.1487 31.704C12.1869 31.704 12.2236 31.6888 12.2506 31.6617C12.2776 31.6347 12.2928 31.5981 12.2928 31.5598C12.2928 30.8235 12.6078 30.1383 12.885 29.4708L13.7721 27.3129C13.8453 27.1422 13.5636 27.0668 13.4927 27.2353L13.4971 27.2331Z" fill="white"/>
<path d="M13.7344 28.2288C12.9833 29.4516 12.4723 30.8064 12.2285 32.2206L13.7344 28.2288Z" fill="white"/>
<path d="M13.6058 28.1667C12.8505 29.4016 12.335 30.7679 12.0866 32.194C12.0577 32.3758 12.3372 32.4535 12.366 32.2716C12.6085 30.8692 13.1142 29.5253 13.8564 28.3108C13.8758 28.2776 13.8812 28.238 13.8714 28.2008C13.8616 28.1636 13.8375 28.1317 13.8042 28.1123C13.771 28.0929 13.7314 28.0875 13.6942 28.0973C13.657 28.1071 13.6252 28.1312 13.6058 28.1645V28.1667Z" fill="white"/>
<path d="M13.5459 27.9604C13.5105 28.1857 13.4586 28.4081 13.3907 28.6258L12.2529 32.5333" fill="white"/>
<path d="M13.4061 27.9228C13.3381 28.3067 13.241 28.6848 13.1156 29.0539L12.7829 30.2026L12.1175 32.5024C12.1126 32.5207 12.1113 32.5399 12.1138 32.5587C12.1162 32.5775 12.1223 32.5957 12.1318 32.6122C12.1413 32.6287 12.1539 32.6431 12.169 32.6547C12.184 32.6663 12.2012 32.6748 12.2196 32.6798C12.2379 32.6847 12.2571 32.686 12.2759 32.6836C12.2948 32.6811 12.3129 32.675 12.3294 32.6655C12.3459 32.656 12.3603 32.6434 12.3719 32.6284C12.3835 32.6133 12.392 32.5961 12.397 32.5778L13.0623 30.2802L13.395 29.1315C13.5204 28.7624 13.6175 28.3843 13.6855 28.0005C13.6942 27.964 13.689 27.9257 13.6709 27.8929C13.6529 27.8602 13.6233 27.8352 13.588 27.823C13.5696 27.8177 13.5504 27.8161 13.5314 27.8184C13.5124 27.8207 13.4941 27.8267 13.4775 27.8363C13.4609 27.8458 13.4465 27.8586 13.435 27.8738C13.4235 27.8891 13.4151 27.9065 13.4105 27.9251L13.4061 27.9228Z" fill="white"/>
<path d="M12.437 32.6953C12.4658 32.5645 12.5013 32.4358 12.5346 32.3094C12.8828 31.0542 13.2354 29.7879 13.8054 28.6125" fill="white"/>
<path d="M12.5768 32.7352C12.7298 32.0433 12.9472 31.3536 13.1623 30.6794C13.3719 29.9966 13.6298 29.3297 13.9341 28.6835C14.0161 28.5172 13.7655 28.3708 13.6835 28.5394C13.3736 29.1941 13.1105 29.87 12.8961 30.5619C12.7853 30.9056 12.6744 31.2516 12.5856 31.5975C12.4969 31.9435 12.3772 32.3028 12.2951 32.6598C12.2574 32.8417 12.5369 32.9193 12.5768 32.7374V32.7352Z" fill="white"/>
<path d="M12.3372 32.1363C12.3593 32.1496 12.3837 32.1208 12.3926 32.0964L12.4569 31.9345C12.4569 31.9101 12.4946 31.8813 12.5124 31.9012" fill="white"/>
<path d="M12.264 32.2605C12.3022 32.2827 12.3473 32.2898 12.3905 32.2805C12.4204 32.2716 12.4478 32.2556 12.4703 32.2339L12.4814 32.2228L12.5102 32.1851C12.5213 32.1654 12.5303 32.1446 12.5368 32.123L12.5967 31.9744L12.5812 32.0077C12.5848 32.0005 12.5893 31.9938 12.5945 31.9877L12.5701 32.0188C12.5733 32.0133 12.5779 32.0087 12.5834 32.0055L12.5546 32.0276L12.5213 32.041H12.4836H12.4437L12.4104 32.0276L12.3794 32.0055C12.408 32.0315 12.4449 32.0465 12.4836 32.0476C12.5218 32.0474 12.5584 32.0323 12.5856 32.0055C12.6128 31.9781 12.6281 31.941 12.6281 31.9024C12.6281 31.8637 12.6128 31.8266 12.5856 31.7992C12.5707 31.7841 12.5525 31.7727 12.5324 31.766C12.5126 31.7578 12.4916 31.7526 12.4703 31.7504C12.4563 31.7492 12.4422 31.7492 12.4282 31.7504L12.386 31.7682C12.3589 31.7864 12.3355 31.8098 12.3173 31.8369C12.3173 31.8569 12.2973 31.8768 12.2906 31.8968C12.2707 31.95 12.2507 32.001 12.2286 32.052L12.2441 32.0188C12.2448 32.0254 12.2448 32.0321 12.2441 32.0387L12.2663 32.0099L12.2507 32.0232L12.2818 32.001L12.3173 31.9855H12.3572H12.3949L12.4304 31.9988C12.3965 31.9801 12.3568 31.9754 12.3195 31.9855C12.3013 31.9901 12.2842 31.9984 12.2694 32.0098C12.2545 32.0213 12.2421 32.0356 12.233 32.052C12.2229 32.0685 12.2163 32.0868 12.2136 32.1059C12.211 32.1249 12.2123 32.1444 12.2175 32.1629C12.2281 32.1991 12.2518 32.2299 12.284 32.2494L12.264 32.2605Z" fill="white"/>
<path d="M12.2529 32.2385L13.1556 30.6573C13.6844 29.7815 14.147 28.8675 14.5395 27.9229" fill="white"/>
<path d="M12.3815 32.3116C12.7985 31.582 13.2176 30.8546 13.6301 30.1228C14.0301 29.4272 14.3813 28.7047 14.6814 27.9605C14.7479 27.7875 14.4596 27.7121 14.4019 27.8851C14.104 28.6191 13.755 29.3312 13.3573 30.0163C12.9537 30.7349 12.5412 31.449 12.1309 32.1653C12.1115 32.1985 12.1061 32.2381 12.1158 32.2753C12.1256 32.3125 12.1498 32.3443 12.183 32.3637C12.2162 32.3832 12.2558 32.3886 12.2931 32.3788C12.3303 32.369 12.3621 32.3449 12.3815 32.3116Z" fill="white"/>
<path d="M12.4082 32.3804C12.4702 32.3165 12.5192 32.2412 12.5524 32.1586C13.0905 30.9891 13.5807 29.7997 14.0228 28.5903" fill="white"/>
<path d="M12.5101 32.4779C12.6124 32.3563 12.692 32.2173 12.7452 32.0676C12.8206 31.9058 12.8938 31.7439 12.967 31.5864C13.1089 31.2626 13.2487 30.9388 13.384 30.6106C13.659 29.9512 13.9192 29.2859 14.1646 28.6147C14.2289 28.4395 13.9428 28.3641 13.8852 28.5371C13.6501 29.178 13.4017 29.8145 13.1422 30.4421C13.0091 30.7614 12.8739 31.0763 12.7364 31.3913C12.6713 31.5391 12.6048 31.6869 12.5368 31.8348C12.488 31.9939 12.413 32.1438 12.315 32.2783C12.1863 32.4114 12.3904 32.6176 12.5212 32.4824L12.5101 32.4779Z" fill="white"/>
<path d="M12.4214 32.4113C12.8102 31.6809 13.1887 30.9484 13.5569 30.2136C13.8708 29.6416 14.1271 29.0399 14.322 28.4172" fill="white"/>
<path d="M12.5523 32.4844C12.9072 31.8043 13.2613 31.1213 13.6147 30.4353C13.9636 29.8045 14.2503 29.1412 14.4707 28.4549C14.47 28.4226 14.4587 28.3915 14.4384 28.3663C14.4182 28.3412 14.3902 28.3235 14.3588 28.3159C14.3274 28.3083 14.2944 28.3113 14.265 28.3244C14.2355 28.3375 14.2111 28.36 14.1957 28.3884C13.9778 29.065 13.6941 29.7187 13.3485 30.3399C13.007 31.0097 12.6617 31.6787 12.3128 32.3469C12.2263 32.5133 12.4769 32.6596 12.5634 32.4955L12.5523 32.4844Z" fill="white"/>
<path d="M14.1026 23.7734C13.0529 25.3661 12.2442 27.105 11.7029 28.934L14.1026 23.7734Z" fill="white"/>
<path d="M13.9739 23.7002C13.16 24.9449 12.4904 26.2782 11.9779 27.6743C11.8293 28.0779 11.694 28.4837 11.572 28.8962C11.5671 28.9145 11.5658 28.9337 11.5682 28.9525C11.5707 28.9714 11.5768 28.9896 11.5863 29.006C11.5958 29.0225 11.6084 29.037 11.6234 29.0486C11.6385 29.0601 11.6557 29.0687 11.674 29.0736C11.6924 29.0786 11.7115 29.0799 11.7304 29.0774C11.7492 29.075 11.7674 29.0688 11.7839 29.0594C11.8004 29.0499 11.8148 29.0373 11.8264 29.0222C11.838 29.0071 11.8465 28.9899 11.8515 28.9716C12.2707 27.5612 12.8496 26.2034 13.5769 24.9243C13.7854 24.5562 14.0072 24.1969 14.2423 23.8465C14.3443 23.6891 14.0937 23.5449 13.9916 23.7002H13.9739Z" fill="white"/>
<path d="M14.2822 24.3145C13.3532 26.0686 12.6057 27.9129 12.0511 29.8188C11.8914 29.098 12.2551 28.3706 12.6433 27.743C13.2356 26.7875 13.9165 25.8898 14.677 25.0618C14.2689 27.1331 12.3705 28.6101 11.6741 30.606" fill="white"/>
<path d="M14.1602 24.2414C13.433 25.6148 12.816 27.0438 12.315 28.5149C12.1672 28.9348 12.0341 29.3576 11.9158 29.7834H12.1997C12.0134 28.8963 12.6211 28.0359 13.0868 27.3439C13.597 26.5803 14.1657 25.8573 14.7879 25.1817L14.5439 25.0398C14.2135 26.6809 12.9781 27.9228 12.142 29.3177C11.8984 29.7126 11.6948 30.1309 11.5343 30.5663C11.4722 30.7415 11.7561 30.8169 11.8138 30.6417C12.3705 29.0671 13.628 27.8828 14.362 26.4014C14.5683 25.9907 14.7218 25.5555 14.8189 25.1063C14.8433 24.9755 14.6792 24.8535 14.575 24.9666C14.0616 25.5276 13.5839 26.1201 13.1445 26.7407C12.6876 27.3268 12.3109 27.9711 12.0245 28.6568C11.8741 29.0419 11.8357 29.4617 11.9136 29.8677C11.9229 29.8975 11.9415 29.9235 11.9666 29.942C11.9917 29.9605 12.0221 29.9704 12.0533 29.9704C12.0845 29.9704 12.1149 29.9605 12.14 29.942C12.1652 29.9235 12.1837 29.8975 12.193 29.8677C12.6203 28.3915 13.1654 26.9521 13.8231 25.5631C14.0094 25.1684 14.2046 24.7803 14.4064 24.3944C14.4951 24.2281 14.2445 24.0839 14.158 24.2481L14.1602 24.2414Z" fill="white"/>
<path d="M13.8298 28.0203L13.251 28.7698C13.0092 29.0593 12.805 29.3782 12.6433 29.719C13.0314 29.3709 13.3582 28.9601 13.6103 28.5037L13.2599 29.6126C13.344 29.1533 13.5036 28.7112 13.7323 28.3041C13.7323 28.3041 13.7433 28.2775 13.7323 28.2709C13.7212 28.2642 13.7101 28.2842 13.7323 28.2842" fill="white"/>
<path d="M13.7278 27.9184C13.506 28.2089 13.2842 28.4994 13.0624 28.8055C12.8497 29.0641 12.6694 29.3479 12.5257 29.6504C12.5078 29.6848 12.5043 29.7249 12.5159 29.7619C12.5275 29.7989 12.5534 29.8298 12.5878 29.8478C12.6147 29.8607 12.6447 29.8655 12.6743 29.8615C12.7038 29.8576 12.7316 29.8451 12.7541 29.8256C13.1494 29.47 13.4836 29.052 13.7433 28.5881L13.4794 28.4772L13.1334 29.5861L13.4151 29.6615C13.4602 29.4127 13.5277 29.1685 13.6169 28.9319C13.659 28.8188 13.7078 28.7101 13.7588 28.6036C13.8098 28.4972 13.9207 28.3686 13.8897 28.2444C13.881 28.2139 13.8627 28.1871 13.8375 28.1679C13.8124 28.1487 13.7816 28.1382 13.7499 28.1379C13.7218 28.137 13.6939 28.1437 13.6693 28.1574C13.6447 28.1711 13.6243 28.1912 13.6102 28.2156C13.5942 28.2435 13.5876 28.276 13.5916 28.308C13.5956 28.34 13.6099 28.3698 13.6324 28.393C13.7544 28.5349 13.9584 28.3287 13.8364 28.1867L13.8586 28.3641L13.7344 28.4351L13.5947 28.3287V28.2666C13.5548 28.3708 13.486 28.4706 13.4372 28.5748C13.3884 28.679 13.3419 28.7966 13.3019 28.9053C13.222 29.1292 13.1597 29.3591 13.1156 29.5927C13.1109 29.6278 13.119 29.6634 13.1385 29.6929C13.1579 29.7224 13.1874 29.7439 13.2215 29.7534C13.2556 29.7628 13.292 29.7596 13.3239 29.7444C13.3558 29.7291 13.3811 29.7028 13.3951 29.6704L13.7433 28.5615C13.7486 28.5432 13.7502 28.5239 13.7479 28.5049C13.7457 28.486 13.7396 28.4676 13.7301 28.4511C13.7205 28.4345 13.7078 28.42 13.6925 28.4085C13.6772 28.397 13.6598 28.3887 13.6413 28.3841C13.6107 28.3766 13.5786 28.379 13.5495 28.391C13.5204 28.403 13.4958 28.4238 13.4794 28.4506C13.2327 28.8953 12.9134 29.2956 12.5346 29.6349L12.7564 29.8123C12.8954 29.5173 13.0696 29.2403 13.2753 28.9873C13.4897 28.7049 13.7063 28.4248 13.9251 28.1468C13.9507 28.119 13.9649 28.0826 13.9649 28.0448C13.9649 28.007 13.9507 27.9706 13.9251 27.9428C13.8978 27.9162 13.8612 27.9014 13.8231 27.9014C13.785 27.9014 13.7484 27.9162 13.7211 27.9428L13.7278 27.9184Z" fill="white"/>
<path d="M12.5923 34.0214C12.634 33.7812 12.6548 33.5378 12.6544 33.294C12.6611 32.3999 12.868 31.5186 13.2598 30.7148" fill="white"/>
<path d="M12.7364 34.0613C12.7815 33.7789 12.8044 33.4934 12.8051 33.2075C12.817 32.9253 12.8444 32.6439 12.8872 32.3648C12.9686 31.8157 13.1379 31.2833 13.3884 30.788C13.4749 30.6217 13.2243 30.4753 13.1378 30.6416C12.8783 31.1457 12.7002 31.6876 12.6099 32.2472C12.5656 32.5222 12.5323 32.8016 12.5146 33.0811C12.5165 33.3839 12.495 33.6864 12.4503 33.9859C12.4126 34.1677 12.692 34.2454 12.7297 34.0635L12.7364 34.0613Z" fill="white"/>
<path d="M13.6523 29.8323C13.3464 30.5155 13.1008 31.2242 12.9182 31.9502C12.8189 32.4249 12.7448 32.9046 12.6964 33.3872L12.5767 34.5981" fill="white"/>
<path d="M13.5104 29.7922C13.1726 30.5372 12.9132 31.3154 12.7364 32.1141C12.5855 32.9191 12.5146 33.7641 12.4303 34.589C12.4103 34.7731 12.7009 34.7709 12.7208 34.589C12.8095 33.7752 12.865 32.9457 13.0247 32.1496C13.2064 31.3674 13.4634 30.6047 13.792 29.872C13.863 29.7013 13.5836 29.6259 13.5126 29.7966L13.5104 29.7922Z" fill="white"/>
<path d="M13.5526 29.9697C13.2332 31.4977 12.6211 32.9858 12.6211 34.5448C12.6211 34.7666 12.6322 34.9884 12.6211 35.1968" fill="white"/>
<path d="M13.4128 29.9407C13.2265 30.8278 12.9537 31.6683 12.7475 32.5399C12.6471 32.9696 12.573 33.4051 12.5257 33.8439C12.4769 34.3007 12.5035 34.7509 12.4924 35.2055C12.4924 35.2438 12.5076 35.2804 12.5347 35.3075C12.5617 35.3345 12.5984 35.3497 12.6366 35.3497C12.6748 35.3497 12.7115 35.3345 12.7385 35.3075C12.7656 35.2804 12.7807 35.2438 12.7807 35.2055C12.7941 34.7509 12.7674 34.3007 12.8162 33.8439C12.8672 33.4159 12.945 32.9914 13.0491 32.5731C13.2509 31.7171 13.5215 30.8788 13.7034 30.0161C13.73 29.8232 13.4505 29.7456 13.4128 29.9407Z" fill="white"/>
<path d="M13.6812 29.8035C13.373 30.8303 13.0669 31.8593 12.7741 32.8927C12.5368 33.6101 12.3959 34.3559 12.355 35.1104" fill="white"/>
<path d="M13.5304 29.7634C13.2642 30.6615 12.9959 31.5597 12.7364 32.4601C12.4769 33.3604 12.2174 34.2032 12.2019 35.1213C12.2019 35.1595 12.2171 35.1962 12.2441 35.2232C12.2712 35.2503 12.3078 35.2654 12.3461 35.2654C12.3843 35.2654 12.421 35.2503 12.448 35.2232C12.475 35.1962 12.4902 35.1595 12.4902 35.1213C12.5057 34.2209 12.7808 33.3471 13.0291 32.4978C13.2775 31.6484 13.5481 30.7236 13.8098 29.8476C13.8653 29.668 13.588 29.5926 13.5304 29.77V29.7634Z" fill="white"/>
<path d="M13.7188 29.6858C13.415 30.5421 13.0641 31.3809 12.6676 32.1984L13.7188 29.6858Z" fill="white"/>
<path d="M13.5791 29.6481C13.2791 30.492 12.9334 31.319 12.5434 32.1253C12.4613 32.2916 12.7119 32.438 12.794 32.2694C13.1948 31.4395 13.5495 30.5881 13.8563 29.7191C13.9184 29.5417 13.6345 29.4663 13.5769 29.6415L13.5791 29.6481Z" fill="white"/>
<path d="M13.8408 29.6038C13.6856 30.0961 13.517 30.584 13.3418 31.0697L13.8408 29.6038Z" fill="white"/>
<path d="M13.7034 29.566C13.5437 30.0561 13.3774 30.5462 13.2021 31.0318C13.1965 31.05 13.1944 31.0692 13.1961 31.0882C13.1979 31.1072 13.2033 31.1256 13.2122 31.1425C13.221 31.1594 13.2331 31.1744 13.2478 31.1866C13.2624 31.1988 13.2793 31.208 13.2975 31.2137C13.3157 31.2194 13.3349 31.2214 13.3538 31.2197C13.3728 31.218 13.3913 31.2125 13.4082 31.2037C13.4251 31.1948 13.4401 31.1827 13.4523 31.1681C13.4645 31.1534 13.4737 31.1365 13.4794 31.1183C13.6546 30.6327 13.8209 30.1426 13.9806 29.6524C14.0383 29.4662 13.7522 29.3885 13.7034 29.566Z" fill="white"/>
<path d="M13.5436 30.0962C13.408 30.4095 13.3133 30.7389 13.262 31.0764L13.5436 30.0962Z" fill="white"/>
<path d="M13.4195 30.0252C13.2768 30.3526 13.1769 30.6969 13.1223 31.0498C13.1141 31.0865 13.1194 31.1249 13.1374 31.158C13.1553 31.191 13.1846 31.2164 13.2199 31.2294C13.2563 31.2392 13.2951 31.2345 13.3282 31.2163C13.3613 31.1981 13.386 31.1679 13.3973 31.1319C13.4476 30.8064 13.5377 30.4884 13.6657 30.1849C13.6841 30.1514 13.689 30.1121 13.6796 30.075C13.6701 30.038 13.6469 30.0059 13.6147 29.9853C13.581 29.9666 13.5413 29.9616 13.5041 29.9716C13.4669 29.9815 13.4349 30.0055 13.4151 30.0385L13.4195 30.0252Z" fill="white"/>
<path d="M13.3086 30.8391C13.3551 30.8391 13.3574 30.9145 13.3463 30.9611C13.1533 31.897 12.5434 32.7108 12.3749 33.6489" fill="white"/>
<path d="M13.2399 30.9632C13.1955 30.941 13.2266 30.9033 13.2022 30.9632C13.1914 30.9949 13.184 31.0276 13.18 31.0608C13.1645 31.1207 13.1467 31.1783 13.129 31.2382C13.0957 31.3469 13.058 31.46 13.0159 31.5642C12.9272 31.7971 12.8229 32.0211 12.7253 32.2473C12.5135 32.6813 12.3521 33.1382 12.2441 33.6089C12.2086 33.7908 12.488 33.8684 12.5213 33.6865C12.6473 33.1562 12.8372 32.6431 13.0868 32.1586C13.1981 31.9177 13.2965 31.6712 13.3818 31.4201C13.4439 31.236 13.6191 30.8501 13.3818 30.7193C13.3486 30.6999 13.309 30.6944 13.2718 30.7042C13.2345 30.714 13.2027 30.7382 13.1833 30.7714C13.1639 30.8046 13.1585 30.8442 13.1683 30.8814C13.178 30.9186 13.2022 30.9505 13.2354 30.9699L13.2399 30.9632Z" fill="white"/>
<path d="M13.4549 30.4954C13.3889 30.5978 13.3395 30.7101 13.3085 30.828C12.9404 32.0322 12.5678 33.252 12.5101 34.5094" fill="white"/>
<path d="M13.3307 30.4221C13.2478 30.5656 13.1858 30.7202 13.1466 30.8812L13.0002 31.3646C12.896 31.7128 12.7962 32.0588 12.7097 32.4114C12.5282 33.0987 12.4145 33.8021 12.3704 34.5115C12.3704 34.6978 12.652 34.6978 12.6609 34.5115C12.7034 33.826 12.8134 33.1463 12.9891 32.4824C13.0712 32.1541 13.1643 31.8171 13.2597 31.5044C13.3085 31.3402 13.3573 31.1806 13.4061 31.0209C13.4442 30.8616 13.5031 30.708 13.5813 30.5641C13.6789 30.4066 13.4327 30.2602 13.3307 30.4177V30.4221Z" fill="white"/>
<path d="M12.4414 34.7775C12.437 34.437 12.4864 34.098 12.5878 33.7729L13.1068 31.7149C13.2833 30.9119 13.5404 30.1288 13.8741 29.3774" fill="white"/>
<path d="M12.5856 34.7777C12.5985 34.3058 12.6822 33.8386 12.834 33.3916L13.1821 32.0166C13.3684 31.1385 13.6418 30.2812 13.9983 29.4574C14.0804 29.2911 13.8297 29.1425 13.7499 29.3111C13.3799 30.1556 13.0961 31.0353 12.9027 31.9368L12.5434 33.3606C12.3912 33.8173 12.3083 34.2942 12.2972 34.7754C12.2972 34.9617 12.5966 34.9617 12.5878 34.7754L12.5856 34.7777Z" fill="white"/>
<path d="M13.0358 30.8789C12.8515 31.4502 12.7303 32.0399 12.6743 32.6375C12.6388 33.0811 12.6566 33.5246 12.6189 33.9548C12.5812 34.3851 12.4924 34.8419 12.4215 35.2855C12.248 36.3778 12.1945 37.4858 12.2618 38.5898" fill="white"/>
<path d="M12.896 30.8412C12.7459 31.3169 12.6354 31.8043 12.5656 32.2982C12.499 32.8016 12.5145 33.3095 12.4835 33.8151C12.4525 34.3207 12.3482 34.8219 12.2617 35.3253C12.0998 36.4055 12.05 37.4994 12.1131 38.5898C12.1131 38.7761 12.4147 38.7761 12.4014 38.5898C12.3396 37.5725 12.3812 36.5516 12.5256 35.5427C12.5966 35.0526 12.6986 34.5647 12.7474 34.0723C12.7962 33.58 12.7718 33.07 12.8184 32.5688C12.8783 32.0075 12.9957 31.4538 13.1688 30.9166C13.2242 30.7392 12.947 30.6615 12.8894 30.8412H12.896Z" fill="white"/>
<path d="M12.7452 32.0476C12.7136 32.3403 12.6632 32.6307 12.5944 32.9169C12.5238 33.3754 12.4942 33.8393 12.5056 34.303C12.4923 36.5606 12.479 38.8227 12.6808 41.0714" fill="white"/>
<path d="M12.5989 32.0476C12.5678 32.3276 12.5189 32.6054 12.4525 32.8793C12.4053 33.1579 12.3779 33.4395 12.3705 33.722C12.3483 34.3141 12.3549 34.9062 12.3549 35.4961C12.3549 36.6892 12.3549 37.8824 12.4082 39.0755C12.437 39.7408 12.4769 40.4061 12.5368 41.0714C12.5523 41.2555 12.8429 41.2577 12.8273 41.0714C12.7209 39.8827 12.6721 38.6918 12.6543 37.4965C12.6366 36.3011 12.6322 35.1169 12.6543 33.9282C12.6551 33.6089 12.6803 33.2901 12.7297 32.9746C12.8018 32.6677 12.8551 32.3566 12.8894 32.0432C12.8894 31.8569 12.61 31.8591 12.6011 32.0432L12.5989 32.0476Z" fill="white"/>
<path d="M13.5305 29.1667C12.769 33.0107 12.1037 36.874 11.5344 40.7564L13.5305 29.1667Z" fill="white"/>
<path d="M13.3951 29.127C12.8037 32.1298 12.2699 35.1429 11.7938 38.1663C11.6607 39.0179 11.5321 39.8688 11.4079 40.7189C11.3813 40.903 11.6607 40.9806 11.6874 40.7965C12.1309 37.7716 12.6307 34.7526 13.1866 31.7395C13.3433 30.8938 13.5037 30.0489 13.6679 29.2047C13.7056 29.0228 13.4261 28.943 13.3906 29.127H13.3951Z" fill="white"/>
<path d="M13.7921 29.7988C13.1267 31.5952 12.4814 33.4026 12.111 35.281C11.8631 36.7031 11.6951 38.1379 11.6075 39.5788" fill="white"/>
<path d="M13.6523 29.759C13.2087 30.992 12.7652 32.2273 12.397 33.4892C12.0464 34.7462 11.8008 36.0302 11.6629 37.328C11.5809 38.0753 11.5232 38.8271 11.4633 39.5789C11.45 39.763 11.7406 39.763 11.7539 39.5789C11.8559 38.2616 11.9579 36.9443 12.1974 35.6425C12.4416 34.3676 12.7804 33.1126 13.211 31.888C13.4327 31.2005 13.6944 30.5197 13.9406 29.8366C14.0027 29.6614 13.7188 29.586 13.6612 29.759H13.6523Z" fill="white"/>
<path d="M13.4683 29.8855C12.6669 32.6714 12.1673 35.5354 11.9779 38.428L13.4683 29.8855Z" fill="white"/>
<path d="M13.3286 29.8455C12.6998 32.0259 12.2547 34.2551 11.9979 36.5097C11.9254 37.1469 11.8678 37.7863 11.8249 38.428C11.8116 38.6143 12.1021 38.6143 12.1132 38.428C12.2636 36.1827 12.5997 33.9537 13.1179 31.7638C13.2665 31.1451 13.4262 30.533 13.6014 29.9232C13.6049 29.9042 13.6046 29.8848 13.6006 29.8659C13.5966 29.8471 13.589 29.8292 13.578 29.8134C13.5671 29.7975 13.5532 29.784 13.537 29.7735C13.5208 29.763 13.5028 29.7559 13.4838 29.7524C13.4502 29.7462 13.4154 29.7521 13.3857 29.7692C13.3561 29.7863 13.3335 29.8133 13.3219 29.8455H13.3286Z" fill="white"/>
<path d="M12.9937 32.0942C12.258 34.4459 11.8352 36.8841 11.7362 39.3461L12.9937 32.0942Z" fill="white"/>
<path d="M12.865 32.0543C12.2871 33.8928 11.8977 35.7854 11.7028 37.7027C11.6496 38.2468 11.6119 38.7916 11.5897 39.3372C11.5897 39.5234 11.8714 39.5212 11.878 39.3372C11.9575 37.4271 12.231 35.5301 12.6942 33.6754C12.8228 33.1542 12.9692 32.6353 13.1378 32.123C13.1932 31.9434 12.916 31.868 12.8583 32.0454L12.865 32.0543Z" fill="white"/>
<path d="M13.0867 31.2581C13.1178 31.828 12.7851 32.3514 12.6786 32.9125C12.633 33.3456 12.6131 33.781 12.6188 34.2165C12.5796 34.5957 12.5092 34.971 12.4081 35.3386L11.8292 37.7226" fill="white"/>
<path d="M12.9449 31.258C12.9285 31.6478 12.8382 32.0308 12.6787 32.3868C12.5473 32.7807 12.4821 33.1936 12.4858 33.6088C12.4936 34.0429 12.4534 34.4765 12.366 34.9017C12.2684 35.3319 12.1575 35.7622 12.0533 36.1924L11.6874 37.6893C11.643 37.869 11.9225 37.9466 11.9668 37.767C12.1886 36.8799 12.4104 35.9928 12.6144 35.1057C12.7158 34.6896 12.7701 34.2633 12.7763 33.835C12.7763 33.6132 12.7763 33.3915 12.7896 33.1586C12.8138 32.9544 12.8607 32.7536 12.9293 32.5598C13.0691 32.1296 13.2576 31.7104 13.2398 31.2514C13.2398 31.0651 12.9427 31.0629 12.9493 31.2514L12.9449 31.258Z" fill="white"/>
<path d="M12.763 31.7151C12.5186 32.2679 12.3686 32.8579 12.3195 33.4604L12.763 31.7151Z" fill="white"/>
<path d="M12.6432 31.6418C12.3904 32.2183 12.2352 32.8328 12.1842 33.4603C12.1709 33.6466 12.4592 33.6466 12.4747 33.4603C12.5206 32.8837 12.6615 32.3187 12.8916 31.7881C12.9099 31.7549 12.9148 31.716 12.9053 31.6793C12.8958 31.6426 12.8727 31.611 12.8406 31.5908C12.8243 31.5812 12.8063 31.5748 12.7875 31.5722C12.7688 31.5696 12.7497 31.5707 12.7314 31.5754C12.713 31.5801 12.6958 31.5884 12.6807 31.5998C12.6656 31.6112 12.6529 31.6255 12.6432 31.6418Z" fill="white"/>
<path d="M12.5789 33.2119C12.5789 34.099 12.5412 34.9861 12.4658 35.8731L12.5789 33.2119Z" fill="white"/>
<path d="M12.4348 33.212C12.4348 34.0991 12.3971 34.9862 12.3217 35.8732C12.304 36.0595 12.5945 36.0573 12.61 35.8732C12.6854 34.9862 12.7231 34.0991 12.7231 33.212C12.7231 33.1738 12.7079 33.1371 12.6809 33.1101C12.6539 33.0831 12.6172 33.0679 12.579 33.0679C12.5407 33.0679 12.5041 33.0831 12.477 33.1101C12.45 33.1371 12.4348 33.1738 12.4348 33.212Z" fill="white"/>
<path d="M12.7297 32.8237L12.6432 33.5888C12.6277 33.7507 12.61 33.9148 12.5989 34.0767C12.5612 34.5868 12.57 35.0991 12.5833 35.6114" fill="white"/>
<path d="M12.5834 32.8239C12.5368 33.2807 12.4769 33.7376 12.4503 34.1944C12.4237 34.6513 12.4303 35.1369 12.4503 35.6093C12.4547 35.6447 12.4719 35.6774 12.4986 35.701C12.5254 35.7246 12.5599 35.7377 12.5956 35.7377C12.6313 35.7377 12.6657 35.7246 12.6925 35.701C12.7192 35.6774 12.7364 35.6447 12.7408 35.6093C12.7408 35.1369 12.7209 34.6646 12.7408 34.1944C12.7608 33.7243 12.8273 33.2807 12.8761 32.8239C12.8939 32.642 12.6033 32.642 12.5834 32.8239Z" fill="white"/>
<path d="M12.6631 32.4246C12.6803 33.5634 12.5994 34.7016 12.4214 35.8265L12.6631 32.4246Z" fill="white"/>
<path d="M12.5169 32.4248C12.5322 33.5508 12.4528 34.6762 12.2796 35.789C12.2507 35.9709 12.528 36.0485 12.559 35.8644C12.7372 34.7267 12.8203 33.5762 12.8074 32.4248C12.803 32.3893 12.7858 32.3567 12.7591 32.3331C12.7323 32.3094 12.6978 32.2964 12.6621 32.2964C12.6264 32.2964 12.592 32.3094 12.5652 32.3331C12.5384 32.3567 12.5213 32.3893 12.5169 32.4248Z" fill="white"/>
<path d="M12.7697 32.855C12.7497 32.9171 12.7231 32.9747 12.7054 33.0368C12.6475 33.2536 12.6228 33.4779 12.6322 33.7021" fill="white"/>
<path d="M12.6432 32.8238C12.6166 32.8948 12.5878 32.9636 12.5678 33.0345C12.5422 33.1104 12.5229 33.1883 12.5101 33.2674C12.4923 33.4145 12.4849 33.5627 12.488 33.7109C12.488 33.7492 12.5032 33.7858 12.5302 33.8129C12.5572 33.8399 12.5939 33.8551 12.6321 33.8551C12.6704 33.8545 12.707 33.8392 12.7342 33.8124C12.7615 33.7855 12.7774 33.7492 12.7785 33.7109C12.7741 33.5702 12.7808 33.4293 12.7985 33.2896V33.2674C12.7974 33.2497 12.7974 33.2319 12.7985 33.2142C12.7985 33.1809 12.814 33.1476 12.8229 33.1188C12.845 33.0456 12.8739 32.9769 12.8983 32.9081C12.9041 32.8899 12.9062 32.8708 12.9046 32.8517C12.9029 32.8327 12.8975 32.8142 12.8886 32.7972C12.8798 32.7803 12.8676 32.7653 12.8529 32.7531C12.8382 32.741 12.8212 32.7318 12.8029 32.7263C12.7661 32.7151 12.7265 32.7189 12.6924 32.7367C12.6584 32.7546 12.6328 32.7851 12.621 32.8216L12.6432 32.8238Z" fill="white"/>
<g filter="url(#filter0_i)">
<path d="M72.9658 64V39.5791H73.4971L89.7334 58.2725V39.5791H92.1406V64H91.5928L75.4893 45.5391V64H72.9658ZM106.285 45.4727C109.063 45.4727 111.365 46.4798 113.191 48.4941C114.852 50.3314 115.682 52.5062 115.682 55.0186C115.682 57.542 114.802 59.75 113.042 61.6426C111.293 63.5241 109.041 64.4648 106.285 64.4648C103.518 64.4648 101.255 63.5241 99.4951 61.6426C97.7464 59.75 96.8721 57.542 96.8721 55.0186C96.8721 52.5173 97.7021 50.348 99.3623 48.5107C101.188 46.4854 103.496 45.4727 106.285 45.4727ZM106.285 47.7471C104.359 47.7471 102.705 48.4609 101.321 49.8887C99.9378 51.3164 99.2461 53.043 99.2461 55.0684C99.2461 56.3743 99.5615 57.5918 100.192 58.7207C100.823 59.8496 101.675 60.724 102.749 61.3438C103.823 61.9525 105.001 62.2568 106.285 62.2568C107.569 62.2568 108.748 61.9525 109.821 61.3438C110.895 60.724 111.747 59.8496 112.378 58.7207C113.009 57.5918 113.324 56.3743 113.324 55.0684C113.324 53.043 112.627 51.3164 111.232 49.8887C109.849 48.4609 108.2 47.7471 106.285 47.7471ZM122.04 39.2305H124.381V45.9375H128.066V47.9297H124.381V64H122.04V47.9297H118.869V45.9375H122.04V39.2305ZM132.35 38.5C132.881 38.5 133.335 38.6882 133.711 39.0645C134.087 39.4408 134.275 39.8945 134.275 40.4258C134.275 40.946 134.087 41.3942 133.711 41.7705C133.335 42.1468 132.881 42.335 132.35 42.335C131.829 42.335 131.381 42.1468 131.005 41.7705C130.629 41.3942 130.44 40.946 130.44 40.4258C130.44 39.8945 130.629 39.4408 131.005 39.0645C131.381 38.6882 131.829 38.5 132.35 38.5ZM131.188 45.9375H133.528V64H131.188V45.9375ZM145.78 38.9648V41.2393C144.928 40.874 144.198 40.6914 143.589 40.6914C143.135 40.6914 142.759 40.7855 142.46 40.9736C142.161 41.1507 141.973 41.361 141.896 41.6045C141.818 41.8369 141.779 42.4678 141.779 43.4971V45.9375H145.548V47.9297H141.763V64H139.438V47.9297H137.064V45.9375H139.438V43.1152C139.438 41.8203 139.555 40.8962 139.787 40.3428C140.031 39.7894 140.435 39.3467 140.999 39.0146C141.575 38.6715 142.266 38.5 143.074 38.5C143.827 38.5 144.729 38.6549 145.78 38.9648ZM149.848 38.5C150.379 38.5 150.833 38.6882 151.209 39.0645C151.585 39.4408 151.773 39.8945 151.773 40.4258C151.773 40.946 151.585 41.3942 151.209 41.7705C150.833 42.1468 150.379 42.335 149.848 42.335C149.327 42.335 148.879 42.1468 148.503 41.7705C148.127 41.3942 147.938 40.946 147.938 40.4258C147.938 39.8945 148.127 39.4408 148.503 39.0645C148.879 38.6882 149.327 38.5 149.848 38.5ZM148.686 45.9375H151.026V64H148.686V45.9375ZM173.372 49.6895L171.529 50.835C169.936 48.721 167.761 47.6641 165.005 47.6641C162.802 47.6641 160.971 48.3724 159.51 49.7891C158.06 51.2057 157.335 52.9268 157.335 54.9521C157.335 56.2692 157.667 57.5088 158.331 58.6709C159.006 59.833 159.925 60.735 161.087 61.377C162.26 62.0189 163.572 62.3398 165.021 62.3398C167.678 62.3398 169.847 61.2829 171.529 59.1689L173.372 60.3809C172.509 61.6758 171.347 62.6829 169.886 63.4023C168.436 64.1107 166.781 64.4648 164.922 64.4648C162.066 64.4648 159.698 63.5573 157.816 61.7422C155.935 59.9271 154.994 57.7191 154.994 55.1182C154.994 53.3695 155.431 51.748 156.306 50.2539C157.191 48.7487 158.403 47.5755 159.941 46.7344C161.48 45.8932 163.201 45.4727 165.104 45.4727C166.3 45.4727 167.451 45.6553 168.558 46.0205C169.675 46.3857 170.622 46.8617 171.396 47.4482C172.171 48.0348 172.83 48.7819 173.372 49.6895ZM195.851 45.9375V64H193.56V60.8955C192.586 62.0798 191.49 62.9707 190.272 63.5684C189.066 64.166 187.743 64.4648 186.305 64.4648C183.748 64.4648 181.562 63.5407 179.747 61.6924C177.943 59.833 177.041 57.5752 177.041 54.9189C177.041 52.318 177.954 50.0934 179.78 48.2451C181.606 46.3968 183.803 45.4727 186.371 45.4727C187.854 45.4727 189.193 45.7881 190.389 46.4189C191.595 47.0498 192.652 47.9961 193.56 49.2578V45.9375H195.851ZM186.554 47.7139C185.259 47.7139 184.063 48.0348 182.968 48.6768C181.872 49.3076 180.998 50.1986 180.345 51.3496C179.703 52.5007 179.382 53.7181 179.382 55.002C179.382 56.2747 179.708 57.4922 180.361 58.6543C181.014 59.8164 181.889 60.724 182.984 61.377C184.091 62.0189 185.275 62.3398 186.537 62.3398C187.81 62.3398 189.016 62.0189 190.156 61.377C191.296 60.735 192.171 59.8662 192.779 58.7705C193.399 57.6748 193.709 56.4408 193.709 55.0684C193.709 52.9766 193.017 51.2279 191.634 49.8223C190.261 48.4167 188.568 47.7139 186.554 47.7139ZM203.653 60.3477C204.218 60.3477 204.699 60.5469 205.098 60.9453C205.496 61.3438 205.695 61.8307 205.695 62.4062C205.695 62.9707 205.496 63.4577 205.098 63.8672C204.699 64.2656 204.218 64.4648 203.653 64.4648C203.089 64.4648 202.607 64.2656 202.209 63.8672C201.811 63.4577 201.611 62.9707 201.611 62.4062C201.611 61.8307 201.811 61.3438 202.209 60.9453C202.607 60.5469 203.089 60.3477 203.653 60.3477ZM211.34 38.5C211.871 38.5 212.325 38.6882 212.701 39.0645C213.077 39.4408 213.266 39.8945 213.266 40.4258C213.266 40.946 213.077 41.3942 212.701 41.7705C212.325 42.1468 211.871 42.335 211.34 42.335C210.82 42.335 210.371 42.1468 209.995 41.7705C209.619 41.3942 209.431 40.946 209.431 40.4258C209.431 39.8945 209.619 39.4408 209.995 39.0645C210.371 38.6882 210.82 38.5 211.34 38.5ZM210.178 45.9375H212.519V64H210.178V45.9375ZM225.883 45.4727C228.661 45.4727 230.963 46.4798 232.789 48.4941C234.449 50.3314 235.279 52.5062 235.279 55.0186C235.279 57.542 234.399 59.75 232.64 61.6426C230.891 63.5241 228.639 64.4648 225.883 64.4648C223.116 64.4648 220.853 63.5241 219.093 61.6426C217.344 59.75 216.47 57.542 216.47 55.0186C216.47 52.5173 217.3 50.348 218.96 48.5107C220.786 46.4854 223.094 45.4727 225.883 45.4727ZM225.883 47.7471C223.957 47.7471 222.302 48.4609 220.919 49.8887C219.535 51.3164 218.844 53.043 218.844 55.0684C218.844 56.3743 219.159 57.5918 219.79 58.7207C220.421 59.8496 221.273 60.724 222.347 61.3438C223.42 61.9525 224.599 62.2568 225.883 62.2568C227.167 62.2568 228.345 61.9525 229.419 61.3438C230.493 60.724 231.345 59.8496 231.976 58.7207C232.606 57.5918 232.922 56.3743 232.922 55.0684C232.922 53.043 232.225 51.3164 230.83 49.8887C229.447 48.4609 227.798 47.7471 225.883 47.7471Z" fill="#F9F7F7"/>
</g>
<defs>
<filter id="filter0_i" x="72.9658" y="38.5" width="162.313" height="29.9648" filterUnits="userSpaceOnUse" color-interpolation-filters="sRGB">
<feFlood flood-opacity="0" result="BackgroundImageFix"/>
<feBlend mode="normal" in="SourceGraphic" in2="BackgroundImageFix" result="shape"/>
<feColorMatrix in="SourceAlpha" type="matrix" values="0 0 0 0 0 0 0 0 0 0 0 0 0 0 0 0 0 0 127 0" result="hardAlpha"/>
<feOffset dy="4"/>
<feGaussianBlur stdDeviation="2"/>
<feComposite in2="hardAlpha" operator="arithmetic" k2="-1" k3="1"/>
<feColorMatrix type="matrix" values="0 0 0 0 0 0 0 0 0 0 0 0 0 0 0 0 0 0 0.25 0"/>
<feBlend mode="normal" in2="shape" result="effect1_innerShadow"/>
</filter>
</defs>
</svg>
