<svg width="280" height="245" viewBox="0 0 280 245" fill="none" xmlns="http://www.w3.org/2000/svg">
<g clip-path="url(#clip0)">
<path d="M185.194 200.298H17.9504V0H185.194V200.298Z" fill="white"/>
<path d="M185.194 200.298H17.9504V0H185.194V200.298ZM20.4008 197.906H182.744V2.39219H20.4008V197.906Z" fill="#E6E6E6"/>
<path d="M185.262 0H18.2324V25.6229H185.262V0Z" fill="#F9A826"/>
<path d="M42.18 63.615C50.0339 63.615 56.4007 56.9139 56.4007 48.6477C56.4007 40.3815 50.0339 33.6804 42.18 33.6804C34.3261 33.6804 27.9592 40.3815 27.9592 48.6477C27.9592 56.9139 34.3261 63.615 42.18 63.615Z" fill="#E6E6E6"/>
<path d="M116.546 38.0825H67.833V42.4847H116.546V38.0825Z" fill="#E6E6E6"/>
<path d="M175.186 48.6477H67.833V53.0499H175.186V48.6477Z" fill="#E6E6E6"/>
<path d="M175.186 59.2129H67.833V63.615H175.186V59.2129Z" fill="#E6E6E6"/>
<path d="M42.18 186.127C50.0339 186.127 56.4007 179.426 56.4007 171.16C56.4007 162.894 50.0339 156.193 42.18 156.193C34.3261 156.193 27.9592 162.894 27.9592 171.16C27.9592 179.426 34.3261 186.127 42.18 186.127Z" fill="#E6E6E6"/>
<path d="M116.546 160.595H67.833V164.997H116.546V160.595Z" fill="#E6E6E6"/>
<path d="M175.186 171.16H67.833V175.562H175.186V171.16Z" fill="#E6E6E6"/>
<path d="M175.186 181.725H67.833V186.127H175.186V181.725Z" fill="#E6E6E6"/>
<path d="M44.5501 6.54688H23.3584V9.77511H44.5501V6.54688Z" fill="white"/>
<path d="M44.5501 12.123H23.3584V15.3513H44.5501V12.123Z" fill="white"/>
<path d="M44.5501 17.699H23.3584V20.9272H44.5501V17.699Z" fill="white"/>
<path d="M203.145 138.385H0V81.4226H203.145V138.385Z" fill="white"/>
<path d="M203.145 138.385H0V81.4226H203.145V138.385ZM2.45032 135.807H200.694V84.0016H2.45032V135.807Z" fill="#CCCCCC"/>
<path d="M25.2093 124.619C32.9742 124.619 39.2689 117.994 39.2689 109.822C39.2689 101.649 32.9742 95.0239 25.2093 95.0239C17.4444 95.0239 11.1497 101.649 11.1497 109.822C11.1497 117.994 17.4444 124.619 25.2093 124.619Z" fill="#F9A826"/>
<path d="M112.875 97.3452H54.707V101.697H112.875V97.3452Z" fill="#3F3D56"/>
<path d="M182.898 107.791H54.707V112.143H182.898V107.791Z" fill="#3F3D56"/>
<path d="M182.898 118.236H54.707V122.588H182.898V118.236Z" fill="#3F3D56"/>
<path d="M235.643 153.401C235.822 153.326 236.006 153.265 236.194 153.221L242.397 136.259L239.765 132.821L244.176 127.962C245.45 129.936 251.754 134.095 249.836 137.06L240.209 155.085C240.479 155.593 240.636 156.159 240.668 156.74C240.7 157.321 240.607 157.903 240.395 158.44C240.183 158.978 239.858 159.458 239.444 159.844C239.03 160.231 238.539 160.513 238.006 160.671C233.709 162.027 231.462 155.068 235.643 153.401Z" fill="#A0616A"/>
<path d="M241.513 136.187C240.4 136.524 236.198 129.647 235.496 129.049C234.659 128.215 234.17 127.067 234.136 125.855C234.103 124.643 234.527 123.466 235.316 122.583C236.106 121.7 237.196 121.182 238.347 121.143C239.499 121.105 240.618 121.548 241.459 122.377L247.922 127.138C248.105 127.275 248.259 127.452 248.372 127.656C248.485 127.861 248.555 128.088 248.578 128.323C248.6 128.559 248.575 128.796 248.503 129.02C248.431 129.244 248.315 129.45 248.162 129.623C247.389 130.176 242.611 136.609 241.513 136.187Z" fill="#F9A826"/>
<path d="M243.711 239.365L238.704 239.364L237.956 219.039L243.712 219.039L243.711 239.365Z" fill="#A0616A"/>
<path d="M244.988 244.472L228.844 244.472C228.693 235.478 239.614 237.93 244.988 237.644L244.988 244.472Z" fill="#2F2E41"/>
<path d="M260.018 237.63L255.045 238.237L250.453 218.336L257.793 217.44L260.018 237.63Z" fill="#A0616A"/>
<path d="M261.846 242.549L245.809 244.507C244.674 235.592 255.791 236.702 261.098 235.766L261.846 242.549Z" fill="#2F2E41"/>
<path d="M244.607 234.539H236.375V201.881L231.567 174.618L224.991 150.394L240.419 142.495L243.361 147.36C243.816 147.796 251.187 154.975 251.982 162.089C252.792 169.339 244.964 231.701 244.631 234.352L244.607 234.539Z" fill="#BBBBBB"/>
<path d="M225.548 155.468L223.007 143.743C222.411 143.139 216.77 137.053 223.014 129.275L226.304 120.246L235.943 117.104L239.712 120.175C241.23 121.41 242.436 123.019 243.225 124.86C244.013 126.701 244.359 128.718 244.233 130.733L243.204 147.322L225.548 155.468Z" fill="#2F2E41"/>
<path d="M233.802 97.6552C243.735 103.604 235.58 119.301 225.462 113.712C215.529 107.763 223.684 92.0659 233.802 97.6552Z" fill="#A0616A"/>
<path d="M206.477 118.805C206.508 119.023 206.524 119.243 206.522 119.464L222.062 130.541L226.166 128.452L229.971 134.56C227.672 135.495 221.941 141.499 219.429 138.633L203.661 123.48C203.084 123.656 202.476 123.692 201.883 123.585C201.291 123.478 200.729 123.231 200.24 122.863C199.752 122.495 199.348 122.015 199.061 121.459C198.774 120.903 198.611 120.286 198.583 119.654C198.274 114.533 205.826 113.737 206.477 118.805Z" fill="#A0616A"/>
<path d="M222.352 129.573C222.285 128.251 230.235 125.257 231.01 124.621C232.053 123.893 233.329 123.631 234.556 123.891C235.784 124.151 236.863 124.913 237.557 126.009C238.252 127.106 238.505 128.447 238.261 129.74C238.018 131.032 237.297 132.17 236.257 132.905L229.88 138.938C229.697 139.108 229.482 139.236 229.248 139.311C229.015 139.387 228.769 139.409 228.527 139.377C228.285 139.344 228.052 139.258 227.844 139.123C227.636 138.988 227.458 138.808 227.322 138.595C226.955 137.597 221.657 130.694 222.352 129.573Z" fill="#F9A826"/>
<path d="M251.197 228.065L240.981 201.13L247.787 190.833L262.749 227.139L251.197 228.065Z" fill="#BBBBBB"/>
<path d="M279.592 245H212.208C212.1 245 211.996 244.955 211.919 244.874C211.843 244.794 211.8 244.684 211.8 244.57C211.8 244.456 211.843 244.347 211.919 244.266C211.996 244.186 212.1 244.14 212.208 244.14H279.592C279.7 244.14 279.804 244.186 279.88 244.266C279.957 244.347 280 244.456 280 244.57C280 244.684 279.957 244.794 279.88 244.874C279.804 244.955 279.7 245 279.592 245Z" fill="#CCCCCC"/>
<path d="M260.438 105.471C257.119 106.115 253.647 105.05 250.804 103.137C247.96 101.225 245.676 98.5222 243.648 95.6833C242.507 94.0852 241.403 92.3994 239.85 91.2492C238.296 90.099 236.147 89.5889 234.487 90.5614C233.024 91.4188 232.379 93.6693 233.238 95.0779C230.933 94.4698 228.488 94.6528 226.159 95.1714C223.915 95.6711 221.634 96.5334 220.081 98.3101C218.528 100.087 217.941 102.974 219.253 104.954L221.2 105.307C224.756 104.453 226.398 104.832 229.953 105.686C229.833 105.024 230.82 104.672 231.32 105.094C231.819 105.516 231.639 106.354 231.962 106.936C233.335 109.416 233.337 112.458 232.635 114.763C236.157 113.224 238.739 109.056 239.46 105.114C239.817 103.393 239.685 101.599 239.082 99.9553C238.792 99.2356 238.394 98.5694 237.903 97.9822C239.223 98.39 240.442 99.1001 241.471 100.062C243.284 101.722 244.596 103.889 246.045 105.907C247.495 107.924 249.188 109.879 251.416 110.83C254.831 112.286 258.888 111.012 261.692 108.495C263.88 106.53 265.427 103.927 266.659 101.169C265.949 102.289 265.032 103.246 263.964 103.985C262.895 104.724 261.696 105.229 260.438 105.471Z" fill="#95958B"/>
<path d="M266.659 101.169C267.103 100.446 267.432 99.6506 267.633 98.8154C267.329 99.6053 267.006 100.393 266.659 101.169Z" fill="#2F2E41"/>
</g>
<defs>
<clipPath id="clip0">
<rect width="280" height="245" fill="white"/>
</clipPath>
</defs>
</svg>
