<svg width="280" height="245" viewBox="0 0 280 245" fill="none" xmlns="http://www.w3.org/2000/svg">
<path d="M178.713 235.483L173.755 234.987L173.312 215.674L180.631 216.406L178.713 235.483Z" fill="#9E616A"/>
<path d="M179.496 240.404L163.508 238.805L163.528 238.603C163.694 236.957 164.508 235.444 165.792 234.396C167.076 233.349 168.724 232.853 170.375 233.018L170.375 233.018L180.141 233.995L179.496 240.404Z" fill="#2F2E41"/>
<path d="M107.289 160.025H8.80446C6.47018 160.022 4.23226 159.096 2.58167 157.45C0.931085 155.803 0.00263481 153.571 0 151.243V8.78199C0.00263481 6.45367 0.931085 4.22146 2.58167 2.57509C4.23226 0.928714 6.47018 0.00262809 8.80446 0H107.289C109.624 0.00262809 111.862 0.928715 113.512 2.57509C115.163 4.22146 116.091 6.45367 116.094 8.78199V151.243C116.091 153.571 115.163 155.803 113.512 157.45C111.862 159.096 109.624 160.022 107.289 160.025Z" fill="#E4E4E4"/>
<path d="M107.463 154.421H8.63107C7.9115 154.421 7.22164 154.135 6.71283 153.628C6.20403 153.12 5.91781 152.432 5.91699 151.714V8.31017C5.91781 7.59244 6.20403 6.90434 6.71283 6.39683C7.22164 5.88932 7.9115 5.60385 8.63107 5.60303H107.463C108.182 5.60385 108.872 5.88932 109.381 6.39683C109.89 6.90434 110.176 7.59244 110.177 8.31017V151.714C110.176 152.432 109.89 153.12 109.381 153.628C108.872 154.135 108.182 154.421 107.463 154.421Z" fill="white"/>
<path d="M57.6723 3.43654C58.086 3.43654 58.4213 3.10207 58.4213 2.68946C58.4213 2.27686 58.086 1.94238 57.6723 1.94238C57.2587 1.94238 56.9233 2.27686 56.9233 2.68946C56.9233 3.10207 57.2587 3.43654 57.6723 3.43654Z" fill="white"/>
<path d="M101.04 81.4619H35.7561V83.8815H101.04V81.4619Z" fill="#E4E4E4"/>
<path d="M101.04 89.124H35.7561V91.5436H101.04V89.124Z" fill="#E4E4E4"/>
<path d="M101.04 96.7861H35.7561V99.2058H101.04V96.7861Z" fill="#E4E4E4"/>
<path d="M29.8452 82.9573H15.0542V97.7105H29.8452V82.9573Z" fill="#E4E4E4"/>
<path d="M101.04 113.574H35.7561V115.994H101.04V113.574Z" fill="#E4E4E4"/>
<path d="M101.04 121.237H35.7561V123.656H101.04V121.237Z" fill="#E4E4E4"/>
<path d="M101.04 128.899H35.7561V131.319H101.04V128.899Z" fill="#E4E4E4"/>
<path d="M29.8452 115.07H15.0542V129.823H29.8452V115.07Z" fill="#E4E4E4"/>
<path d="M69.2944 26.0489L43.7209 35.9143L53.2691 60.5392L78.8425 50.6738L69.2944 26.0489Z" fill="#F9A826"/>
<path d="M47.0695 59.6408L36.7256 32.9637L64.4033 22.2864L74.7472 48.9635L47.0695 59.6408ZM37.777 33.4273L47.5345 58.5919L73.6956 48.4998L63.9382 23.3352L37.777 33.4273Z" fill="#3F3D56"/>
<path d="M201.339 240.237C191.972 240.237 184.351 225.335 184.351 207.019C184.327 201.857 184.967 196.713 186.256 191.713C186.432 191.043 186.623 190.381 186.824 189.74C189.93 179.76 195.356 173.801 201.339 173.801C210.706 173.801 218.326 188.702 218.326 207.019C218.326 225.335 210.706 240.237 201.339 240.237ZM201.339 174.612C195.815 174.612 190.55 180.501 187.6 189.982C187.403 190.611 187.215 191.262 187.042 191.917C185.771 196.849 185.14 201.924 185.164 207.017C185.164 224.888 192.42 239.426 201.339 239.426C210.257 239.426 217.513 224.888 217.513 207.019C217.513 189.149 210.257 174.612 201.339 174.612Z" fill="#F9F7F7"/>
<path d="M179.825 240.84L161.081 238.93L161.155 238.406L179.899 240.316L179.825 240.84Z" fill="#3F3D56"/>
<path d="M205.451 226.702C201.891 226.702 199.208 218.24 199.208 207.019C199.208 195.798 201.891 187.336 205.451 187.336C209.01 187.336 211.694 195.798 211.694 207.019C211.694 218.24 209.01 226.702 205.451 226.702ZM205.451 188.147C202.839 188.147 200.02 195.362 200.02 207.019C200.02 218.676 202.839 225.891 205.451 225.891C208.062 225.891 210.881 218.676 210.881 207.019C210.881 195.362 208.062 188.147 205.451 188.147Z" fill="#F9F7F7"/>
<path d="M206.114 211.447C207.359 211.447 208.369 209.464 208.369 207.019C208.369 204.574 207.359 202.591 206.114 202.591C204.868 202.591 203.859 204.574 203.859 207.019C203.859 209.464 204.868 211.447 206.114 211.447Z" fill="#CACACA"/>
<path d="M240.337 240.647C230.678 240.647 222.819 225.508 222.819 206.9C222.796 201.759 223.428 196.637 224.699 191.655C224.891 190.926 225.093 190.22 225.302 189.555C228.494 179.284 234.115 173.152 240.337 173.152C249.996 173.152 257.855 188.291 257.855 206.9C257.855 225.508 249.996 240.647 240.337 240.647ZM240.337 173.963C234.577 173.963 229.114 180.03 226.078 189.796C225.873 190.45 225.674 191.144 225.486 191.858C224.232 196.773 223.609 201.827 223.632 206.898C223.632 225.061 231.126 239.836 240.337 239.836C249.548 239.836 257.042 225.061 257.042 206.9C257.042 188.738 249.548 173.963 240.337 173.963Z" fill="#F9F7F7"/>
<path d="M244.449 226.583C240.89 226.583 238.206 218.121 238.206 206.9C238.206 195.679 240.89 187.217 244.449 187.217C248.008 187.217 250.692 195.679 250.692 206.9C250.692 218.121 248.008 226.583 244.449 226.583ZM244.449 188.028C241.838 188.028 239.019 195.243 239.019 206.9C239.019 218.556 241.838 225.772 244.449 225.772C247.06 225.772 249.879 218.556 249.879 206.9C249.879 195.243 247.06 188.028 244.449 188.028Z" fill="#F9F7F7"/>
<path d="M245.112 211.327C246.358 211.327 247.367 209.345 247.367 206.9C247.367 204.454 246.358 202.472 245.112 202.472C243.867 202.472 242.857 204.454 242.857 206.9C242.857 209.345 243.867 211.327 245.112 211.327Z" fill="#CACACA"/>
<path d="M279.593 240.813H124.722C124.614 240.813 124.511 240.77 124.434 240.694C124.358 240.618 124.315 240.515 124.315 240.407C124.315 240.3 124.358 240.197 124.434 240.121C124.511 240.045 124.614 240.002 124.722 240.002H279.593C279.701 240.002 279.805 240.045 279.881 240.121C279.957 240.197 280 240.3 280 240.407C280 240.515 279.957 240.618 279.881 240.694C279.805 240.77 279.701 240.813 279.593 240.813Z" fill="#CACACA"/>
<path d="M181.076 84.8952C180.861 85.4514 180.771 86.0478 180.813 86.6425C180.854 87.2371 181.026 87.8154 181.316 88.3367C181.605 88.858 182.006 89.3096 182.49 89.6597C182.973 90.0098 183.528 90.2498 184.115 90.363L186.186 104.704L191.83 99.705L188.998 86.8532C189.124 85.8575 188.878 84.8505 188.309 84.0232C187.739 83.1959 186.886 82.6056 185.909 82.3642C184.933 82.1229 183.901 82.2472 183.01 82.7137C182.12 83.1801 181.431 83.9563 181.076 84.8952Z" fill="#9E616A"/>
<path d="M201.206 141.274L237.551 141.142V155.424L201.206 156.887V141.274Z" fill="#3F3D56"/>
<path d="M192.922 239.287L187.99 238.577L188.388 219.262L195.668 220.31L192.922 239.287Z" fill="#9E616A"/>
<path d="M193.49 244.236L177.586 241.947L177.615 241.747C177.852 240.109 178.732 238.632 180.06 237.642C181.389 236.651 183.057 236.227 184.699 236.463L184.699 236.463L194.413 237.861L193.49 244.236Z" fill="#2F2E41"/>
<path d="M170.166 189.714L169.636 189.685L171.242 160.592H204.124V161.121H171.744L170.166 189.714Z" fill="#F9F7F7"/>
<path d="M173.637 240.724L173.549 241.246L195.86 245L195.949 244.478L173.637 240.724Z" fill="#3F3D56"/>
<path d="M226.21 189.742C226.011 190.38 225.824 191.03 225.648 191.695L225.093 191.756L207.838 193.669L168.309 189.699L209.43 187.583L225.69 189.676L226.21 189.742Z" fill="#3F3D56"/>
<path d="M217.171 91.6531C217.171 91.6531 211.425 89.8258 207.732 97.1351C204.038 104.444 198.292 112.485 198.292 112.485L201.575 113.216C201.575 113.216 202.396 108.099 204.448 107.368L203.627 113.947C203.627 113.947 228.253 121.621 239.334 113.216L238.923 110.657C238.923 110.657 240.565 111.023 240.565 113.216L241.796 112.119C241.796 112.119 240.565 109.926 236.871 107.003C234.447 105.084 233.614 101.433 233.327 99.1502C233.094 97.2048 232.232 95.3881 230.871 93.9755C228.416 91.4422 223.943 88.7497 217.171 91.6531Z" fill="#95958B"/>
<path d="M196.245 171.384L195.443 174.233C195.443 174.233 179.291 170.325 177.187 180.429C175.083 190.534 172.197 221.806 172.197 221.806L180.353 223.475L188.099 189.384L219.472 182.558L217.418 164.898L196.245 171.384Z" fill="#BBBBBB"/>
<path d="M209.828 176.072C209.828 176.072 188.074 171.573 186.482 182.422C184.89 193.272 187.278 213.912 187.543 214.441C187.809 214.97 186.482 224.761 186.482 224.761L196.033 226.084C196.033 226.084 202.134 197.241 199.482 189.832L217.431 188.724C223.627 188.342 228.689 183.46 229.046 177.278C229.182 174.912 228.588 172.764 226.542 171.573C220.175 167.868 208.502 167.868 208.502 167.868L209.828 176.072Z" fill="#BBBBBB"/>
<path d="M220.175 118.052C225.449 118.052 229.725 113.787 229.725 108.526C229.725 103.265 225.449 98.9995 220.175 98.9995C214.9 98.9995 210.624 103.265 210.624 108.526C210.624 113.787 214.9 118.052 220.175 118.052Z" fill="#A0616A"/>
<path d="M211.154 123.643L205.053 122.883L200.566 133.447C200.566 133.447 194.308 172.235 195.9 172.764C196.793 173.078 197.74 173.213 198.685 173.161L228.803 174.725C228.803 174.725 230.147 168.681 229.616 164.183C229.086 159.684 235.296 135.056 235.296 135.056L234.102 123.809L229.021 123.716L225.362 120.878L215.181 120.846L211.154 123.643Z" fill="#2F2E41"/>
<path d="M205.318 124.207L205.053 122.619L197.624 113.622L189.998 88.4424L182.681 96.1459L190.462 120.766L201.073 134.262L205.318 124.207Z" fill="#F9A826"/>
<path d="M207.627 109.665C207.627 109.665 210.911 105.162 213.784 104.343C216.657 103.524 217.067 99.4307 217.067 99.4307C217.067 99.4307 224.455 107.618 228.969 108.027C233.484 108.437 229.38 98.2026 229.38 98.2026L221.171 96.1558L213.373 96.9745L207.217 101.068L207.627 109.665Z" fill="#95958B"/>
<path d="M238.348 174.096L238.091 163.238H213.402L212.613 192.353L212.083 192.339L212.886 162.708H238.604L238.612 162.964L238.878 174.078L238.348 174.096Z" fill="#F9F7F7"/>
<path d="M237.817 159.269H237.286V139.07L245.85 141.55L245.701 142.058L237.817 139.774V159.269Z" fill="#3F3D56"/>
<path d="M241.531 138.628L247.102 140.745L246.041 143.656L241.531 141.803V138.628Z" fill="#3F3D56"/>
<path d="M219.511 161.385V165.619H235.318V161.667L219.511 161.385Z" fill="#3F3D56"/>
<path d="M178.921 159.269V163.502H194.728V159.55L178.921 159.269Z" fill="#3F3D56"/>
<path d="M207.838 148.995H207.709V145.472C207.709 144.931 207.494 144.412 207.111 144.029C206.727 143.647 206.207 143.432 205.665 143.432H198.18C197.638 143.432 197.118 143.647 196.735 144.029C196.351 144.412 196.136 144.931 196.136 145.472V164.803C196.136 165.344 196.351 165.862 196.735 166.245C197.118 166.627 197.638 166.842 198.18 166.842H205.665C206.207 166.842 206.727 166.627 207.111 166.245C207.494 165.862 207.709 165.344 207.709 164.803V151.503H207.838L207.838 148.995Z" fill="#3F3D56"/>
<path d="M201.987 150.686C202.679 150.686 203.239 150.127 203.239 149.437C203.239 148.747 202.679 148.188 201.987 148.188C201.295 148.188 200.735 148.747 200.735 149.437C200.735 150.127 201.295 150.686 201.987 150.686Z" fill="#D0CDE1"/>
<path opacity="0.15" d="M231.98 137.041L231.184 152.124L219.511 154.505L230.123 150.271L231.98 137.041Z" fill="black"/>
<path d="M184.234 83.4464V51.5347H277.726V75.1337H192.568L184.234 83.4464Z" fill="white"/>
<path d="M184.234 83.4464V51.5347H277.726V75.1337H192.568L184.234 83.4464ZM185.047 52.3456V81.4888L192.231 74.3228H276.913V52.3456L185.047 52.3456Z" fill="#3F3D56"/>
<path d="M257.456 57.4731H205.317V61.6898H257.456V57.4731Z" fill="#F9A826"/>
<path d="M257.456 63.7981H205.317V68.0148H257.456V63.7981Z" fill="#F9A826"/>
<path d="M204.356 163.652C204.882 163.935 205.464 164.1 206.06 164.136C206.657 164.171 207.254 164.075 207.809 163.855C208.364 163.635 208.865 163.296 209.275 162.862C209.685 162.429 209.994 161.911 210.182 161.345L224.706 161.13L220.457 154.907L207.316 156.065C206.342 155.814 205.31 155.928 204.414 156.385C203.519 156.843 202.823 157.612 202.458 158.547C202.093 159.482 202.085 160.518 202.435 161.459C202.784 162.4 203.468 163.18 204.356 163.652Z" fill="#9E616A"/>
<path d="M231.184 125.662L233.572 123.809C233.572 123.809 237.551 121.693 238.347 129.102C239.143 136.511 244.98 161.121 239.143 161.385C233.307 161.65 211.542 162.234 211.542 162.234L210.729 154.936L232.246 152.917L231.184 125.662Z" fill="#F9A826"/>
</svg>
