<svg width="323" height="162" viewBox="0 0 323 162" fill="none" xmlns="http://www.w3.org/2000/svg">
<path d="M146.217 80.7738C146.385 80.1141 146.408 79.4253 146.283 78.7559C146.158 78.0866 145.888 77.4529 145.493 76.8995C145.097 76.3461 144.586 75.8866 143.995 75.5532C143.404 75.2198 142.747 75.0206 142.071 74.9698L115.687 41.8335L109.158 47.9459L137.03 79.5987C137.021 80.7453 137.43 81.8557 138.181 82.7194C138.931 83.5832 139.972 84.1402 141.104 84.2851C142.236 84.4299 143.382 84.1525 144.325 83.5053C145.267 82.8582 145.94 81.8863 146.217 80.7738Z" fill="#FFB8B8"/>
<path d="M120.748 47.0973L112.41 53.5119C112.173 53.6944 111.899 53.8234 111.608 53.8901C111.316 53.9568 111.014 53.9597 110.721 53.8984C110.429 53.8372 110.153 53.7134 109.912 53.5354C109.672 53.3574 109.472 53.1294 109.327 52.8669L104.248 43.6692C103.325 42.4445 102.924 40.9024 103.131 39.3808C103.339 37.8592 104.138 36.4823 105.355 35.5521C106.571 34.6219 108.106 34.2143 109.621 34.4185C111.136 34.6227 112.509 35.4222 113.438 36.6417L120.932 43.9396C121.146 44.1486 121.313 44.4016 121.422 44.6813C121.53 44.961 121.577 45.261 121.56 45.5606C121.542 45.8603 121.461 46.1527 121.321 46.4179C121.181 46.683 120.985 46.9148 120.748 47.0973H120.748Z" fill="#F9A826"/>
<path d="M106.745 27.0933C112.601 27.0933 117.348 22.3246 117.348 16.442C117.348 10.5595 112.601 5.79077 106.745 5.79077C100.889 5.79077 96.1416 10.5595 96.1416 16.442C96.1416 22.3246 100.889 27.0933 106.745 27.0933Z" fill="#FFB8B8"/>
<path d="M129.379 154.604H134.672L134.167 144.654L126.356 144.654L129.379 154.604Z" fill="#FFB8B8"/>
<path d="M128.029 152.869L138.452 152.868H138.452C139.325 152.868 140.188 153.041 140.994 153.376C141.8 153.711 142.533 154.203 143.149 154.822C143.766 155.442 144.255 156.178 144.589 156.987C144.923 157.797 145.095 158.664 145.095 159.541V159.757L128.029 159.758L128.029 152.869Z" fill="#2F2E41"/>
<path d="M72.9485 147.077L77.4512 149.871L82.229 141.139L76.7799 137.715L72.9485 147.077Z" fill="#FFB8B8"/>
<path d="M72.7081 144.887L81.5758 150.39L81.5762 150.39C82.3183 150.851 82.9629 151.454 83.4731 152.164C83.9833 152.875 84.3491 153.68 84.5497 154.533C84.7503 155.385 84.7817 156.269 84.6421 157.134C84.5026 157.999 84.1948 158.828 83.7363 159.574L83.6229 159.758L69.1038 150.749L72.7081 144.887Z" fill="#2F2E41"/>
<path d="M128.996 151.687C128.603 151.687 128.218 151.566 127.895 151.341C127.571 151.117 127.323 150.798 127.184 150.429L108.039 104.449C107.998 104.336 107.927 104.238 107.833 104.163C107.74 104.089 107.628 104.042 107.509 104.028C107.391 104.013 107.271 104.032 107.163 104.081C107.054 104.131 106.962 104.21 106.895 104.309L80.5936 145.928C80.3363 146.316 79.9491 146.598 79.5023 146.723C79.0556 146.848 78.5791 146.807 78.1595 146.609L74.5606 144.922C74.0997 144.703 73.7421 144.313 73.5644 143.833C73.3866 143.353 73.4029 142.822 73.6096 142.355L95.1574 94.1054C94.687 92.9556 90.0977 81.1492 97.1488 75.3164L97.1982 75.2855L116.318 66.718L116.8 81.4516L135.858 147.874C135.93 148.124 135.951 148.386 135.921 148.644C135.89 148.902 135.809 149.152 135.681 149.378C135.553 149.604 135.381 149.803 135.176 149.961C134.971 150.12 134.736 150.236 134.486 150.302L129.494 151.622C129.331 151.665 129.164 151.687 128.996 151.687Z" fill="#BBBBBB"/>
<path d="M116.608 45.166C115.88 42.2308 114.848 39.2722 113.465 37.9063C112.956 37.4082 112.478 36.8795 112.034 36.3232C111.103 35.146 109.933 34.1826 108.601 33.4978C109.089 33.2254 109.374 32.9005 109.374 32.5508C109.374 31.5928 107.248 30.8162 104.625 30.8162C102.003 30.8162 99.8765 31.5928 99.8765 32.5508C99.883 32.6621 99.9112 32.771 99.9596 32.8713C100.008 32.9716 100.076 33.0613 100.159 33.1352C98.4462 33.8365 96.958 34.9964 95.8563 36.4887C94.7547 37.981 94.0818 39.7483 93.9111 41.5982C93.2978 48.1968 93.1187 56.6314 95.2682 61.9667C97.0711 66.3785 97.2145 71.2986 95.6716 75.8088C95.5669 76.1228 95.5542 76.4605 95.6347 76.7816C95.7153 77.1028 95.8858 77.394 96.1261 77.6208C96.3663 77.8476 96.6663 78.0004 96.9904 78.0612C97.3145 78.122 97.6491 78.0882 97.9547 77.9637L116.927 70.2838C117.246 70.1545 117.52 69.9322 117.713 69.6455C117.905 69.3588 118.008 69.0208 118.008 68.6749V57.0105C118.024 53.0198 117.553 49.0421 116.608 45.166Z" fill="#2F2E41"/>
<path d="M80.3074 93.208C80.9678 93.0539 81.5866 92.7563 82.1201 92.336C82.6536 91.9157 83.0889 91.383 83.3953 90.7755C83.7017 90.1679 83.8718 89.5003 83.8936 88.8195C83.9153 88.1388 83.7882 87.4616 83.5213 86.8355L98.3655 47.5124L90.8378 45.5601L77.1076 84.4782C76.0903 84.9985 75.2984 85.8755 74.8819 86.9431C74.4653 88.0107 74.4531 89.1947 74.8475 90.2708C75.2419 91.3468 76.0155 92.2402 77.0218 92.7815C78.0281 93.3229 79.1971 93.4746 80.3074 93.208V93.208Z" fill="#FFB8B8"/>
<path d="M98.3035 54.9739L88.7914 50.5012C88.5207 50.374 88.2806 50.1896 88.0873 49.9607C87.894 49.7318 87.752 49.4637 87.6711 49.1747C87.5902 48.8858 87.5723 48.5827 87.6186 48.2861C87.6648 47.9895 87.7741 47.7065 87.9391 47.4562L93.7199 38.6863C94.3765 37.3 95.5534 36.2316 96.9927 35.7154C98.432 35.1991 100.016 35.2769 101.399 35.9318C102.781 36.5867 103.848 37.7653 104.367 39.2094C104.886 40.6534 104.814 42.2452 104.166 43.6359L101.177 53.6808C101.092 53.9684 100.945 54.2341 100.748 54.4597C100.551 54.6853 100.308 54.8656 100.035 54.9883C99.7624 55.1111 99.4665 55.1733 99.1677 55.1708C98.8689 55.1683 98.5741 55.1011 98.3035 54.9739Z" fill="#F9A826"/>
<path d="M116.484 13.8204C116.963 13.8773 117.447 13.7893 117.875 13.5678C118.657 13.0536 118.58 11.8849 118.316 10.9843C117.656 8.82555 116.466 6.86843 114.855 5.29357C113.244 3.71872 111.264 2.57687 109.098 1.97341C107.588 1.57041 105.678 1.58599 104.814 2.8934C102.644 1.44121 100.028 0.818303 97.4399 1.13763C94.8518 1.45696 92.4633 2.6974 90.7075 4.63398C88.9366 6.58728 87.9216 9.13356 87.3956 11.7222C86.4895 16.1812 82.6093 25.3793 84.7587 29.3856C86.189 32.0515 92.7714 29.9743 95.5558 31.1355C98.3402 32.2967 101.724 32.1664 104.198 30.4347C106.671 28.703 107.97 25.2836 106.91 22.4487C106.5 21.3523 105.789 20.4002 105.228 19.3734C104.667 18.3467 104.247 17.1597 104.498 16.0159C104.887 14.2346 113.257 13.7536 116.484 13.8204Z" fill="#95958B"/>
<path d="M205.063 160.023C205.063 160.08 205.054 160.136 205.035 160.189C205.017 160.241 204.99 160.289 204.956 160.33C204.922 160.37 204.881 160.402 204.837 160.424C204.792 160.445 204.744 160.456 204.696 160.456H30.5863C30.4891 160.456 30.3958 160.411 30.3271 160.329C30.2583 160.248 30.2197 160.138 30.2197 160.023C30.2197 159.908 30.2583 159.797 30.3271 159.716C30.3958 159.635 30.4891 159.589 30.5863 159.589H204.696C204.744 159.589 204.792 159.6 204.837 159.621C204.881 159.643 204.922 159.675 204.956 159.715C204.99 159.756 205.017 159.804 205.035 159.856C205.054 159.909 205.063 159.966 205.063 160.023Z" fill="#CCCCCC"/>
<path d="M176.278 156.88C176.241 156.896 176.203 156.907 176.165 156.912C176.127 156.917 176.091 156.917 176.057 156.91C176.024 156.904 175.995 156.892 175.971 156.875C175.947 156.858 175.929 156.837 175.919 156.812L137.443 67.4275C137.422 67.3776 137.431 67.3172 137.468 67.2594C137.505 67.2017 137.567 67.1514 137.64 67.1197C137.714 67.0879 137.793 67.0773 137.861 67.0902C137.928 67.103 137.978 67.1383 137.999 67.1882L176.475 156.572C176.486 156.597 176.489 156.625 176.485 156.654C176.481 156.682 176.47 156.712 176.451 156.741C176.433 156.769 176.408 156.796 176.378 156.82C176.349 156.844 176.315 156.865 176.278 156.88Z" fill="#CCCCCC"/>
<path d="M236.945 162C245.29 162 252.055 160.835 252.055 159.398C252.055 157.961 245.29 156.796 236.945 156.796C228.6 156.796 221.835 157.961 221.835 159.398C221.835 160.835 228.6 162 236.945 162Z" fill="#F9A826"/>
<path d="M322.568 160.456H264.719C264.605 160.456 264.495 160.41 264.414 160.329C264.333 160.248 264.287 160.138 264.287 160.023C264.287 159.908 264.333 159.797 264.414 159.716C264.495 159.635 264.605 159.589 264.719 159.589H322.568C322.683 159.589 322.793 159.635 322.874 159.716C322.955 159.797 323 159.908 323 160.023C323 160.138 322.955 160.248 322.874 160.329C322.793 160.41 322.683 160.456 322.568 160.456Z" fill="#CCCCCC"/>
<path d="M225.714 46.5172C225.715 41.7927 227.327 37.2111 230.283 33.5363C233.239 29.8615 237.36 27.3154 241.958 26.3226C238.96 25.6763 235.856 25.7117 232.873 26.4264C229.89 27.1411 227.105 28.5168 224.72 30.453C222.335 32.3891 220.411 34.8366 219.09 37.6161C217.768 40.3957 217.082 43.437 217.082 46.5172C217.082 49.5975 217.768 52.6388 219.09 55.4184C220.411 58.1979 222.335 60.6454 224.72 62.5815C227.105 64.5176 229.89 65.8934 232.873 66.6081C235.856 67.3227 238.96 67.3582 241.958 66.7119C237.36 65.719 233.239 63.173 230.283 59.4982C227.327 55.8233 225.715 51.2418 225.714 46.5172Z" fill="#F9A826"/>
<path d="M203.337 46.5174C203.337 35.249 207.44 24.3698 214.872 15.9292C222.304 7.48858 232.552 2.06916 243.685 0.691834C237.225 -0.10374 230.67 0.487603 224.454 2.42675C218.238 4.36589 212.503 7.60864 207.628 11.9405C202.752 16.2724 198.848 21.5947 196.174 27.5553C193.499 33.516 192.115 39.9792 192.112 46.5174C192.112 67.2273 222.432 125.629 233.819 146.833C234.233 147.604 234.846 148.249 235.595 148.699C236.344 149.148 237.2 149.385 238.073 149.385C238.945 149.385 239.801 149.148 240.55 148.699C241.299 148.249 241.913 147.604 242.326 146.833C242.753 146.039 243.208 145.187 243.685 144.294C231.426 121.304 203.337 66.4522 203.337 46.5174Z" fill="#F9A826"/>
<path d="M238.112 149.904C237.16 149.912 236.224 149.656 235.407 149.166C234.59 148.676 233.923 147.969 233.479 147.124C220.923 123.744 191.72 67.1476 191.72 46.6025C191.72 34.2428 196.607 22.3892 205.308 13.6496C214.008 4.90989 225.808 0 238.112 0C250.416 0 262.216 4.90989 270.917 13.6496C279.617 22.3892 284.505 34.2428 284.505 46.6025C284.505 67.1496 255.301 123.745 242.746 147.124C242.301 147.969 241.634 148.676 240.817 149.166C239.999 149.656 239.064 149.912 238.112 149.904ZM238.112 0.867331C226.041 0.881007 214.469 5.70392 205.933 14.278C197.398 22.852 192.597 34.477 192.583 46.6025C192.583 66.9501 221.714 123.39 234.238 146.712C234.615 147.415 235.174 148.002 235.856 148.411C236.538 148.82 237.318 149.037 238.112 149.037C238.907 149.037 239.686 148.82 240.368 148.411C241.05 148.002 241.609 147.415 241.986 146.712C254.511 123.391 283.641 66.952 283.641 46.6025C283.628 34.477 278.827 22.852 270.291 14.278C261.756 5.70392 250.183 0.881011 238.112 0.867331Z" fill="#F9F7F7"/>
<path d="M238.112 67.6905C233.96 67.6905 229.901 66.4538 226.449 64.1366C222.997 61.8195 220.306 58.5259 218.717 54.6726C217.128 50.8192 216.712 46.5791 217.522 42.4884C218.332 38.3976 220.332 34.6401 223.268 31.6908C226.204 28.7416 229.944 26.7331 234.016 25.9194C238.089 25.1057 242.31 25.5233 246.146 27.1194C249.982 28.7155 253.26 31.4185 255.567 34.8864C257.874 38.3544 259.105 42.4316 259.105 46.6024C259.099 52.1933 256.885 57.5535 252.95 61.5069C249.014 65.4603 243.678 67.6841 238.112 67.6905ZM238.112 26.3815C234.131 26.3814 230.239 27.5673 226.929 29.7892C223.618 32.011 221.038 35.1691 219.515 38.8639C217.991 42.5588 217.592 46.6245 218.369 50.547C219.146 54.4695 221.063 58.0725 223.878 60.9005C226.693 63.7284 230.28 65.6543 234.185 66.4346C238.09 67.2148 242.137 66.8144 245.815 65.284C249.493 63.7535 252.637 61.1618 254.849 57.8365C257.061 54.5112 258.242 50.6017 258.242 46.6024C258.236 41.2414 256.113 36.1017 252.339 32.3109C248.566 28.52 243.449 26.3877 238.112 26.3815V26.3815Z" fill="#F9F7F7"/>
<path d="M117.958 17.1323C117.958 17.1323 115.811 15.824 114.534 17.2353H113.765C112.995 15.3162 109.189 16.206 109.189 16.206L104 16.9448L104.097 17.2353L109.189 16.8762C109.189 16.8762 109.308 18.674 109.998 19.2572C110.688 19.8405 112.187 19.5134 112.187 19.5134C113.093 19.4128 113.527 18.1776 113.688 17.5692L114.431 17.6058C114.297 18.2257 114.207 19.4356 115.421 19.8565C117.078 20.4215 117.592 19.136 117.592 19.136C117.592 19.136 118.156 17.48 117.958 17.1323Z" fill="#3F3D56"/>
</svg>
